<svg width="160" height="32" viewBox="0 0 160 32" fill="none" xmlns="http://www.w3.org/2000/svg">
<path fill-rule="evenodd" clip-rule="evenodd" d="M8.26428 20.1558C8.6154 19.5463 8.17547 18.7852 7.47204 18.7852H0.914286C0.40934 18.7852 0 19.1945 0 19.6994V31.0833C0 32.0192 1.23937 32.3506 1.70652 31.5397L8.26428 20.1558Z" fill="#C4E554"/>
<path fill-rule="evenodd" clip-rule="evenodd" d="M10.5144 18.7473C9.81167 18.7473 9.37164 17.9876 9.72133 17.378L13.9104 10.0763C14.0721 9.79449 14.0721 9.44809 13.9104 9.16632L9.72123 1.86438C9.37154 1.25486 9.81157 0.495117 10.5143 0.495117H17.5287C17.8557 0.495117 18.1577 0.669715 18.3209 0.953029L23.0514 9.16484C23.2141 9.44733 23.2141 9.79509 23.0514 10.0776L18.3209 18.2894C18.1577 18.5727 17.8557 18.7473 17.5287 18.7473H10.5144Z" fill="#C4E554"/>
<path d="M153.011 18.8251C151.756 18.8251 150.687 18.6307 149.803 18.2418C148.919 17.8529 148.248 17.3315 147.788 16.6775C147.346 16.0234 147.108 15.2899 147.072 14.4768H149.353C149.441 15.2015 149.786 15.776 150.387 16.2002C150.988 16.6068 151.863 16.81 153.011 16.81C154.196 16.81 155.062 16.6333 155.61 16.2798C156.158 15.9086 156.432 15.4225 156.432 14.8215C156.432 14.2205 156.14 13.7874 155.557 13.5223C154.974 13.2394 154.081 12.9743 152.879 12.7268C151.765 12.4794 150.855 12.2319 150.148 11.9844C149.441 11.737 148.84 11.3481 148.345 10.8178C147.85 10.2875 147.603 9.5628 147.603 8.64364C147.603 7.97194 147.806 7.35328 148.212 6.78764C148.637 6.222 149.246 5.77126 150.042 5.43541C150.855 5.09956 151.809 4.93164 152.905 4.93164C154.125 4.93164 155.15 5.13492 155.981 5.54147C156.812 5.94802 157.431 6.46063 157.837 7.0793C158.244 7.68029 158.456 8.29895 158.473 8.9353H156.193C155.999 7.60958 154.894 6.94673 152.879 6.94673C151.871 6.94673 151.12 7.11465 150.625 7.4505C150.148 7.78635 149.909 8.21057 149.909 8.72318C149.909 9.12974 150.06 9.46558 150.36 9.73073C150.678 9.97819 151.067 10.1726 151.527 10.314C151.986 10.4555 152.631 10.6145 153.462 10.7913C154.558 11.0211 155.46 11.2597 156.167 11.5072C156.874 11.7547 157.475 12.1435 157.97 12.6738C158.482 13.2041 158.739 13.92 158.739 14.8215C158.739 15.9881 158.244 16.9515 157.254 17.7115C156.264 18.4539 154.85 18.8251 153.011 18.8251Z" fill="#C4E554"/>
<path d="M146.268 18.56H143.537L139.109 12.5413H136.564V18.56H134.363V0H136.564V10.5262H139.162L143.352 5.1968H145.95L141.045 11.4277L146.268 18.56Z" fill="#C4E554"/>
<path d="M124.947 18.8251C123.657 18.8251 122.482 18.5246 121.421 17.9236C120.378 17.3227 119.556 16.4919 118.955 15.4313C118.354 14.3707 118.054 13.1864 118.054 11.8784C118.054 10.5703 118.354 9.38604 118.955 8.32547C119.556 7.2649 120.378 6.43412 121.421 5.83313C122.482 5.23214 123.657 4.93164 124.947 4.93164C126.096 4.93164 127.113 5.16143 127.997 5.62101C128.898 6.08059 129.623 6.68158 130.171 7.42398C130.736 8.14871 131.116 8.92646 131.311 9.75724H129.057C128.774 8.96181 128.271 8.29896 127.546 7.76867C126.821 7.22071 125.955 6.94673 124.947 6.94673C123.586 6.94673 122.482 7.40631 121.633 8.32547C120.785 9.22696 120.36 10.4113 120.36 11.8784C120.36 13.3455 120.785 14.5386 121.633 15.4578C122.482 16.3593 123.586 16.81 124.947 16.81C125.955 16.81 126.821 16.5449 127.546 16.0146C128.271 15.4667 128.774 14.795 129.057 13.9995H131.311C131.116 14.8303 130.736 15.6169 130.171 16.3593C129.623 17.084 128.898 17.6762 127.997 18.1358C127.113 18.5953 126.096 18.8251 124.947 18.8251Z" fill="#C4E554"/>
<path d="M114.891 18.56H112.69V5.19684H114.891V18.56ZM113.777 3.15524C113.371 3.15524 113.035 3.02267 112.77 2.75753C112.505 2.47471 112.372 2.13886 112.372 1.74998C112.372 1.34343 112.505 1.00758 112.77 0.74244C113.035 0.477298 113.371 0.344727 113.777 0.344727C114.166 0.344727 114.493 0.486136 114.758 0.768956C115.041 1.0341 115.183 1.36111 115.183 1.74998C115.183 2.13886 115.041 2.47471 114.758 2.75753C114.493 3.02267 114.166 3.15524 113.777 3.15524Z" fill="#C4E554"/>
<path d="M102.889 0C104.25 0 105.443 0.256305 106.469 0.768915C107.512 1.28152 108.316 1.99741 108.881 2.91657C109.447 3.83573 109.73 4.88747 109.73 6.07177C109.73 7.25608 109.447 8.30781 108.881 9.22697C108.316 10.1461 107.512 10.862 106.469 11.3746C105.443 11.8872 104.25 12.1435 102.889 12.1435H98.4878V18.56H96.1016V0H102.889ZM102.889 9.86332C104.286 9.86332 105.355 9.53631 106.097 8.88229C106.858 8.21059 107.238 7.27375 107.238 6.07177C107.238 4.86979 106.858 3.94179 106.097 3.28777C105.355 2.61608 104.286 2.28023 102.889 2.28023H98.4878V9.86332H102.889Z" fill="#C4E554"/>
<path d="M93.5992 18.56H89.569L85.751 12.9655H83.895V18.56H80.4746V0H83.895V9.96937H85.8305L89.463 4.93166H93.334L88.641 11.3481L93.5992 18.56Z" fill="#C4E554"/>
<path d="M69.0777 18.8513C67.9464 18.8513 66.9035 18.5596 65.949 17.9763C64.9945 17.393 64.2344 16.5622 63.6688 15.484C63.1031 14.4057 62.8203 13.1596 62.8203 11.7455C62.8203 10.3491 63.1031 9.11173 63.6688 8.03348C64.2344 6.95523 64.9945 6.12445 65.949 5.54113C66.9035 4.94014 67.9464 4.63965 69.0777 4.63965C70.0675 4.63965 70.9602 4.85176 71.7556 5.27599C72.5511 5.70022 73.152 6.23934 73.5586 6.89336H73.6912V4.93131H76.8994V18.5596H73.6912V16.6241H73.5586C73.152 17.2781 72.5511 17.8173 71.7556 18.2415C70.9779 18.648 70.0852 18.8513 69.0777 18.8513ZM69.9792 15.8552C71.0397 15.8552 71.8882 15.4928 72.5245 14.7681C73.1786 14.0434 73.5056 13.0358 73.5056 11.7455C73.5056 10.4728 73.1786 9.47409 72.5245 8.74936C71.8882 8.02464 71.0397 7.66228 69.9792 7.66228C68.8656 7.66228 67.9818 8.02464 67.3277 8.74936C66.6737 9.45641 66.3467 10.4551 66.3467 11.7455C66.3467 13.0358 66.6737 14.0434 67.3277 14.7681C67.9818 15.4928 68.8656 15.8552 69.9792 15.8552Z" fill="#C4E554"/>
<path d="M60.9316 12.806H50.1138C50.2905 13.7782 50.7059 14.5383 51.3599 15.0863C52.0139 15.6342 52.8271 15.9082 53.7992 15.9082C55.3371 15.9082 56.4418 15.3161 57.1135 14.1318H60.6399C60.3925 14.9979 59.9506 15.7933 59.3142 16.5181C58.6955 17.2251 57.909 17.7907 56.9544 18.215C55.9999 18.6392 54.9394 18.8513 53.7727 18.8513C52.4293 18.8513 51.2008 18.542 50.0872 17.9233C48.9913 17.3046 48.1163 16.4562 47.4623 15.3779C46.826 14.282 46.5078 13.0712 46.5078 11.7455C46.5078 10.4198 46.826 9.21778 47.4623 8.13953C48.1163 7.04361 48.9913 6.18632 50.0872 5.56765C51.2008 4.94898 52.4293 4.63965 53.7727 4.63965C55.0984 4.63965 56.3004 4.94014 57.3787 5.54113C58.4746 6.14213 59.3407 7.00826 59.9771 8.13953C60.6134 9.25313 60.9316 10.5523 60.9316 12.0371V12.806ZM53.7992 7.58273C52.8801 7.58273 52.1023 7.8302 51.466 8.32514C50.8296 8.82007 50.3966 9.5006 50.1668 10.3667H57.4052C57.1931 9.53595 56.7688 8.86426 56.1325 8.35165C55.5138 7.83904 54.7361 7.58273 53.7992 7.58273Z" fill="#C4E554"/>
<path d="M38.424 0C39.8558 0 41.1108 0.273981 42.189 0.821943C43.285 1.35223 44.1334 2.10347 44.7344 3.07566C45.3354 4.04785 45.6359 5.16145 45.6359 6.41646C45.6359 7.67147 45.3354 8.78507 44.7344 9.75726C44.1334 10.7294 43.285 11.4895 42.189 12.0375C41.1108 12.5678 39.8558 12.8329 38.424 12.8329H34.712V18.56H31V0H38.424ZM38.3179 9.41257C39.4492 9.41257 40.3154 9.15627 40.9163 8.64366C41.5173 8.11337 41.8178 7.37097 41.8178 6.41646C41.8178 5.46194 41.5085 4.71954 40.8898 4.18926C40.2888 3.65897 39.4315 3.39383 38.3179 3.39383H34.659V9.41257H38.3179Z" fill="#C4E554"/>
</svg>
