<svg width="1280" height="867" viewBox="0 0 1280 867" fill="none" xmlns="http://www.w3.org/2000/svg">
<path fill-rule="evenodd" clip-rule="evenodd" d="M82.086 577.845C75.9339 577.845 72.0841 571.191 75.1508 565.858L148.962 437.491C150.381 435.022 150.381 431.984 148.962 429.515L75.1487 301.144C72.082 295.811 75.9318 289.156 82.0839 289.156L208.236 289.156C211.094 289.156 213.735 290.681 215.164 293.156L293.883 429.501C295.312 431.976 295.312 435.026 293.883 437.501L215.164 573.845C213.735 576.321 211.094 577.845 208.236 577.845H82.086Z" fill="#1D1C68"/>
<path fill-rule="evenodd" clip-rule="evenodd" d="M358.296 577.845C352.144 577.845 348.294 571.191 351.361 565.858L425.172 437.491C426.592 435.022 426.592 431.984 425.172 429.515L351.359 301.144C348.292 295.811 352.142 289.156 358.294 289.156L484.446 289.156C487.304 289.156 489.945 290.681 491.375 293.156L570.093 429.501C571.522 431.976 571.522 435.026 570.093 437.501L491.375 573.845C489.945 576.321 487.304 577.845 484.446 577.845H358.296Z" fill="#1D1C68"/>
<path fill-rule="evenodd" clip-rule="evenodd" d="M633.014 577.845C626.862 577.845 623.012 571.191 626.079 565.858L699.89 437.491C701.31 435.022 701.31 431.984 699.89 429.515L626.077 301.144C623.01 295.811 626.86 289.156 633.012 289.156L759.164 289.156C762.022 289.156 764.663 290.681 766.092 293.156L844.811 429.501C846.24 431.976 846.24 435.026 844.811 437.501L766.092 573.845C764.663 576.321 762.022 577.845 759.164 577.845H633.014Z" fill="#1D1C68"/>
<path fill-rule="evenodd" clip-rule="evenodd" d="M907.733 577.845C901.581 577.845 897.731 571.191 900.797 565.858L974.609 437.491C976.028 435.022 976.028 431.984 974.609 429.515L900.795 301.144C897.729 295.811 901.579 289.156 907.731 289.156L1033.88 289.156C1036.74 289.156 1039.38 290.681 1040.81 293.156L1119.53 429.501C1120.96 431.976 1120.96 435.026 1119.53 437.501L1040.81 573.845C1039.38 576.321 1036.74 577.845 1033.88 577.845H907.733Z" fill="#1D1C68"/>
<path fill-rule="evenodd" clip-rule="evenodd" d="M1182.45 577.845C1176.3 577.845 1172.45 571.191 1175.51 565.858L1249.33 437.491C1250.74 435.022 1250.74 431.984 1249.33 429.515L1175.51 301.144C1172.45 295.811 1176.3 289.156 1182.45 289.156L1308.6 289.156C1311.46 289.156 1314.1 290.681 1315.53 293.156L1394.25 429.501C1395.68 431.976 1395.68 435.026 1394.25 437.501L1315.53 573.845C1314.1 576.321 1311.46 577.845 1308.6 577.845H1182.45Z" fill="#1D1C68"/>
<path fill-rule="evenodd" clip-rule="evenodd" d="M221.629 867C215.477 867 211.627 860.346 214.694 855.012L288.505 726.645C289.925 724.176 289.925 721.139 288.505 718.67L214.692 590.299C211.625 584.966 215.475 578.311 221.627 578.311L347.779 578.311C350.637 578.311 353.278 579.836 354.707 582.311L433.426 718.656C434.855 721.131 434.855 724.18 433.426 726.656L354.707 863C353.278 865.475 350.637 867 347.779 867H221.629Z" fill="#1D1C68"/>
<path fill-rule="evenodd" clip-rule="evenodd" d="M496.348 867C490.196 867 486.346 860.346 489.413 855.012L563.224 726.645C564.643 724.176 564.643 721.139 563.224 718.67L489.411 590.299C486.344 584.966 490.194 578.311 496.346 578.311L622.498 578.311C625.356 578.311 627.997 579.836 629.426 582.311L708.145 718.656C709.574 721.131 709.574 724.18 708.145 726.656L629.426 863C627.997 865.475 625.356 867 622.498 867H496.348Z" fill="#1D1C68"/>
<path fill-rule="evenodd" clip-rule="evenodd" d="M771.066 867C764.914 867 761.064 860.346 764.13 855.012L837.941 726.645C839.361 724.176 839.361 721.139 837.941 718.67L764.128 590.299C761.062 584.966 764.911 578.311 771.064 578.311L897.216 578.311C900.074 578.311 902.715 579.836 904.144 582.311L982.862 718.656C984.291 721.131 984.291 724.18 982.862 726.656L904.144 863C902.715 865.475 900.074 867 897.216 867H771.066Z" fill="#1D1C68"/>
<path fill-rule="evenodd" clip-rule="evenodd" d="M1045.78 867C1039.63 867 1035.78 860.346 1038.85 855.012L1112.66 726.645C1114.08 724.176 1114.08 721.139 1112.66 718.67L1038.85 590.299C1035.78 584.966 1039.63 578.311 1045.78 578.311L1171.93 578.311C1174.79 578.311 1177.43 579.836 1178.86 582.311L1257.58 718.656C1259.01 721.131 1259.01 724.18 1257.58 726.656L1178.86 863C1177.43 865.475 1174.79 867 1171.93 867H1045.78Z" fill="#1D1C68"/>
<path fill-rule="evenodd" clip-rule="evenodd" d="M-53.139 867C-59.2912 867 -63.1409 860.346 -60.0743 855.012L13.7368 726.645C15.1564 724.176 15.1564 721.139 13.7368 718.67L-60.0764 590.299C-63.143 584.966 -59.2933 578.311 -53.1411 578.311L73.0109 578.311C75.8691 578.311 78.5101 579.836 79.9391 582.311L158.658 718.656C160.087 721.131 160.087 724.18 158.658 726.656L79.9391 863C78.5101 865.475 75.869 867 73.0109 867H-53.139Z" fill="#1D1C68"/>
<path fill-rule="evenodd" clip-rule="evenodd" d="M221.631 288.689C215.478 288.689 211.629 282.034 214.695 276.701L288.506 148.335C289.926 145.866 289.926 142.828 288.506 140.359L214.693 11.9878C211.626 6.65445 215.476 -2.10992e-07 221.628 0L347.781 4.32652e-06C350.639 4.42454e-06 353.28 1.5248 354.709 4.00001L433.428 140.344C434.857 142.82 434.857 145.869 433.428 148.344L354.709 284.689C353.28 287.164 350.639 288.689 347.781 288.689H221.631Z" fill="#1D1C68"/>
<path fill-rule="evenodd" clip-rule="evenodd" d="M496.348 288.689C490.196 288.689 486.346 282.034 489.413 276.701L563.224 148.335C564.643 145.866 564.643 142.828 563.224 140.359L489.41 11.9878C486.344 6.65445 490.194 -2.10992e-07 496.346 0L622.499 4.32652e-06C625.357 4.42455e-06 627.998 1.5248 629.427 4.00001L708.146 140.344C709.575 142.82 709.575 145.869 708.146 148.344L629.427 284.689C627.998 287.164 625.357 288.689 622.499 288.689H496.348Z" fill="#1D1C68"/>
<path fill-rule="evenodd" clip-rule="evenodd" d="M771.066 288.689C764.914 288.689 761.064 282.034 764.131 276.701L837.941 148.335C839.361 145.866 839.361 142.828 837.941 140.359L764.128 11.9878C761.061 6.65445 764.911 -2.10992e-07 771.063 0L897.217 4.32652e-06C900.075 4.42455e-06 902.716 1.5248 904.145 4.00001L982.863 140.344C984.292 142.82 984.292 145.869 982.863 148.344L904.145 284.689C902.716 287.164 900.075 288.689 897.217 288.689H771.066Z" fill="#1D1C68"/>
<path fill-rule="evenodd" clip-rule="evenodd" d="M1045.78 288.689C1039.63 288.689 1035.78 282.034 1038.85 276.701L1112.66 148.335C1114.08 145.866 1114.08 142.828 1112.66 140.359L1038.85 11.9878C1035.78 6.65445 1039.63 -2.10992e-07 1045.78 0L1171.94 4.32652e-06C1174.79 4.42454e-06 1177.43 1.5248 1178.86 4.00001L1257.58 140.344C1259.01 142.82 1259.01 145.869 1257.58 148.344L1178.86 284.689C1177.43 287.164 1174.79 288.689 1171.94 288.689H1045.78Z" fill="#1D1C68"/>
<path fill-rule="evenodd" clip-rule="evenodd" d="M-53.1388 288.689C-59.2909 288.689 -63.1407 282.034 -60.074 276.701L13.7367 148.335C15.1564 145.866 15.1564 142.828 13.7367 140.359L-60.0767 11.9878C-63.1433 6.65445 -59.2936 -2.10992e-07 -53.1414 0L73.0119 4.32652e-06C75.87 4.42454e-06 78.511 1.5248 79.9401 4.00001L158.659 140.344C160.088 142.82 160.088 145.869 158.659 148.344L79.9401 284.689C78.511 287.164 75.87 288.689 73.0119 288.689H-53.1388Z" fill="#1D1C68"/>
</svg>
