<svg width="275" height="611" viewBox="0 0 275 611" fill="none" xmlns="http://www.w3.org/2000/svg">
<g clip-path="url(#clip0_1116_34)">
<mask id="mask0_1116_34" style="mask-type:luminance" maskUnits="userSpaceOnUse" x="0" y="0" width="275" height="611">
<path d="M275 0H0V611H275V0Z" fill="white"/>
</mask>
<g mask="url(#mask0_1116_34)">
<path fill-rule="evenodd" clip-rule="evenodd" d="M9.00663 611.811C2.91258 611.811 -0.96136 605.306 1.94961 599.963L76.6899 462.814C77.9922 460.426 77.9922 457.542 76.6899 455.153L1.94758 318.001C-0.963382 312.658 2.91056 306.153 9.00461 306.153H135.825C138.764 306.153 141.467 307.754 142.876 310.327L222.114 455.14C223.429 457.534 223.429 460.43 222.114 462.824L142.876 607.637C141.467 610.21 138.764 611.811 135.825 611.811H9.00663Z" fill="#1D1C68"/>
<path fill-rule="evenodd" clip-rule="evenodd" d="M-128.133 305.658C-134.226 305.658 -138.101 299.152 -135.19 293.81L-60.4489 156.662C-59.1475 154.274 -59.1475 151.39 -60.4489 149.001L-135.192 11.8476C-138.104 6.50544 -134.229 -2.09516e-07 -128.136 0L-1.31278 4.36082e-06C1.62631 4.46186e-06 4.32939 1.60096 5.73818 4.17458L84.977 148.986C86.2873 151.382 86.2873 154.277 84.977 156.672L5.73818 301.483C4.32939 304.057 1.62631 305.658 -1.31278 305.658H-128.133Z" fill="#1D1C68"/>
<path fill-rule="evenodd" clip-rule="evenodd" d="M145.794 305.658C139.701 305.658 135.826 299.152 138.737 293.81L213.477 156.662C214.779 154.274 214.779 151.39 213.477 149.001L138.734 11.8476C135.823 6.50544 139.698 -2.09516e-07 145.791 0L272.611 4.36082e-06C275.553 4.46186e-06 278.254 1.60096 279.66 4.17458L358.906 148.986C360.211 151.382 360.211 154.277 358.906 156.672L279.66 301.483C278.254 304.057 275.553 305.658 272.611 305.658H145.794Z" fill="#1D1C68"/>
</g>
</g>
<defs>
<clipPath id="clip0_1116_34">
<rect width="275" height="611" fill="white"/>
</clipPath>
</defs>
</svg>
