<svg width="1920" height="916" viewBox="0 0 1920 916" fill="none" xmlns="http://www.w3.org/2000/svg">
<g clip-path="url(#clip0_449_10264)">
<path fill-rule="evenodd" clip-rule="evenodd" d="M-33.8207 610.503C-39.8889 610.503 -43.7478 604.012 -40.8485 598.681L33.5851 461.825C34.8813 459.442 34.8813 456.564 33.5851 454.18L-40.8505 317.321C-43.7498 311.99 -39.8909 305.499 -33.8227 305.499L92.477 305.499C95.4031 305.499 98.0958 307.096 99.4982 309.664L178.412 454.167C179.717 456.556 179.717 459.446 178.412 461.835L99.4982 606.338C98.0958 608.906 95.4031 610.503 92.477 610.503H-33.8207Z" fill="#1D1C68"/>
<path fill-rule="evenodd" clip-rule="evenodd" d="M240.716 610.503C234.648 610.503 230.789 604.012 233.689 598.681L308.122 461.825C309.418 459.442 309.418 456.564 308.122 454.18L233.687 317.321C230.787 311.99 234.646 305.499 240.714 305.499L367.014 305.499C369.94 305.499 372.633 307.096 374.035 309.664L452.949 454.167C454.254 456.556 454.254 459.446 452.949 461.835L374.035 606.338C372.633 608.906 369.94 610.503 367.014 610.503H240.716Z" fill="#1D1C68"/>
<path fill-rule="evenodd" clip-rule="evenodd" d="M515.254 610.503C509.185 610.503 505.326 604.012 508.226 598.681L582.659 461.825C583.956 459.442 583.956 456.564 582.659 454.18L508.224 317.321C505.324 311.99 509.183 305.499 515.252 305.499L641.551 305.499C644.477 305.499 647.17 307.096 648.573 309.664L727.486 454.167C728.791 456.556 728.791 459.446 727.486 461.835L648.572 606.338C647.17 608.906 644.477 610.503 641.551 610.503H515.254Z" fill="#1D1C68"/>
<path fill-rule="evenodd" clip-rule="evenodd" d="M789.789 610.503C783.72 610.503 779.862 604.012 782.761 598.681L857.194 461.825C858.491 459.442 858.491 456.564 857.194 454.18L782.759 317.321C779.86 311.99 783.718 305.499 789.787 305.499L916.086 305.499C919.013 305.499 921.705 307.096 923.108 309.664L1002.02 454.167C1003.33 456.556 1003.33 459.446 1002.02 461.835L923.108 606.338C921.705 608.906 919.013 610.503 916.086 610.503H789.789Z" fill="#1D1C68"/>
<path fill-rule="evenodd" clip-rule="evenodd" d="M-170.399 916C-176.467 916 -180.326 909.508 -177.427 904.178L-102.993 767.322C-101.697 764.939 -101.697 762.061 -102.993 759.677L-177.429 622.818C-180.328 617.487 -176.469 610.995 -170.401 610.995L-44.1011 610.995C-41.175 610.995 -38.4823 612.593 -37.0798 615.161L41.8338 759.663C43.1388 762.053 43.1388 764.942 41.8338 767.332L-37.0798 911.834C-38.4823 914.402 -41.175 916 -44.1011 916H-170.399Z" fill="#1D1C68"/>
<path fill-rule="evenodd" clip-rule="evenodd" d="M104.14 916C98.072 916 94.2131 909.508 97.1124 904.178L171.546 767.322C172.842 764.939 172.842 762.061 171.546 759.677L97.1104 622.818C94.2111 617.487 98.07 610.995 104.138 610.995L230.438 610.995C233.364 610.995 236.057 612.593 237.459 615.161L316.373 759.663C317.678 762.053 317.678 764.942 316.373 767.332L237.459 911.834C236.057 914.402 233.364 916 230.438 916H104.14Z" fill="#1D1C68"/>
<path fill-rule="evenodd" clip-rule="evenodd" d="M378.677 916C372.609 916 368.75 909.508 371.65 904.178L446.083 767.322C447.379 764.939 447.379 762.061 446.083 759.677L371.648 622.818C368.748 617.487 372.607 610.995 378.675 610.995L504.975 610.995C507.901 610.995 510.594 612.593 511.996 615.161L590.91 759.663C592.215 762.053 592.215 764.942 590.91 767.332L511.996 911.834C510.594 914.402 507.901 916 504.975 916H378.677Z" fill="#1D1C68"/>
<path fill-rule="evenodd" clip-rule="evenodd" d="M653.214 916C647.146 916 643.287 909.508 646.187 904.178L720.62 767.322C721.917 764.939 721.917 762.061 720.62 759.677L646.185 622.818C643.285 617.487 647.144 610.995 653.212 610.995L779.512 610.995C782.438 610.995 785.131 612.593 786.533 615.161L865.447 759.663C866.752 762.053 866.752 764.942 865.447 767.332L786.533 911.834C785.131 914.402 782.438 916 779.512 916H653.214Z" fill="#1D1C68"/>
<path fill-rule="evenodd" clip-rule="evenodd" d="M-170.398 305.005C-176.466 305.005 -180.325 298.513 -177.426 293.182L-102.993 156.327C-101.696 153.944 -101.696 151.066 -102.993 148.683L-177.429 11.8223C-180.328 6.49154 -176.469 -2.09068e-07 -170.401 0L-44.0988 4.3515e-06C-41.1727 4.45232e-06 -38.4801 1.59754 -37.0776 4.16566L41.836 148.668C43.141 151.058 43.141 153.947 41.836 156.337L-37.0776 300.839C-38.4801 303.407 -41.1727 305.005 -44.0988 305.005H-170.398Z" fill="#1D1C68"/>
<path fill-rule="evenodd" clip-rule="evenodd" d="M104.139 305.005C98.0707 305.005 94.2118 298.513 97.1111 293.182L171.544 156.327C172.841 153.944 172.841 151.066 171.544 148.683L97.1085 11.8223C94.2092 6.49154 98.0681 -2.09068e-07 104.136 0L230.438 4.3515e-06C233.364 4.45231e-06 236.057 1.59754 237.459 4.16566L316.373 148.668C317.678 151.058 317.678 153.947 316.373 156.337L237.459 300.839C236.057 303.407 233.364 305.005 230.438 305.005H104.139Z" fill="#1D1C68"/>
<path fill-rule="evenodd" clip-rule="evenodd" d="M378.676 305.005C372.608 305.005 368.749 298.513 371.648 293.182L446.082 156.327C447.378 153.944 447.378 151.066 446.082 148.683L371.646 11.8223C368.746 6.49154 372.605 -2.09068e-07 378.673 0L504.975 4.3515e-06C507.901 4.45231e-06 510.594 1.59754 511.997 4.16566L590.91 148.668C592.215 151.058 592.215 153.947 590.91 156.337L511.997 300.839C510.594 303.407 507.901 305.005 504.975 305.005H378.676Z" fill="#1D1C68"/>
<path fill-rule="evenodd" clip-rule="evenodd" d="M653.213 305.005C647.145 305.005 643.286 298.513 646.185 293.182L720.619 156.327C721.915 153.944 721.915 151.066 720.619 148.683L646.183 11.8223C643.283 6.49154 647.142 -2.09068e-07 653.21 0L779.512 4.3515e-06C782.439 4.45232e-06 785.131 1.59754 786.534 4.16566L865.447 148.668C866.752 151.058 866.752 153.947 865.447 156.337L786.534 300.839C785.131 303.407 782.439 305.005 779.512 305.005H653.213Z" fill="#1D1C68"/>
<path fill-rule="evenodd" clip-rule="evenodd" d="M1061.15 610.503C1055.08 610.503 1051.22 604.012 1054.12 598.681L1128.56 461.825C1129.85 459.442 1129.85 456.564 1128.56 454.18L1054.12 317.321C1051.22 311.99 1055.08 305.499 1061.15 305.499L1187.45 305.499C1190.37 305.499 1193.07 307.096 1194.47 309.664L1273.38 454.167C1274.69 456.556 1274.69 459.446 1273.38 461.835L1194.47 606.338C1193.07 608.906 1190.37 610.503 1187.45 610.503H1061.15Z" fill="#1D1C68"/>
<path fill-rule="evenodd" clip-rule="evenodd" d="M1337.18 610.503C1331.11 610.503 1327.25 604.012 1330.15 598.681L1404.58 461.825C1405.88 459.442 1405.88 456.564 1404.58 454.18L1330.15 317.321C1327.25 311.99 1331.11 305.499 1337.18 305.499L1463.48 305.499C1466.4 305.499 1469.09 307.096 1470.5 309.664L1549.41 454.167C1550.72 456.556 1550.72 459.446 1549.41 461.835L1470.5 606.338C1469.09 608.906 1466.4 610.503 1463.48 610.503H1337.18Z" fill="#1D1C68"/>
<path fill-rule="evenodd" clip-rule="evenodd" d="M1611.72 610.503C1605.65 610.503 1601.79 604.012 1604.69 598.681L1679.12 461.825C1680.42 459.442 1680.42 456.564 1679.12 454.18L1604.69 317.321C1601.79 311.99 1605.65 305.499 1611.71 305.499L1738.01 305.499C1740.94 305.499 1743.63 307.096 1745.04 309.664L1823.95 454.167C1825.25 456.556 1825.25 459.446 1823.95 461.835L1745.04 606.338C1743.63 608.906 1740.94 610.503 1738.01 610.503H1611.72Z" fill="#1D1C68"/>
<path fill-rule="evenodd" clip-rule="evenodd" d="M1886.25 610.503C1880.19 610.503 1876.33 604.012 1879.23 598.681L1953.66 461.825C1954.96 459.442 1954.96 456.564 1953.66 454.18L1879.22 317.321C1876.32 311.99 1880.18 305.499 1886.25 305.499L2012.55 305.499C2015.48 305.499 2018.17 307.096 2019.57 309.664L2098.49 454.167C2099.79 456.556 2099.79 459.446 2098.49 461.835L2019.57 606.338C2018.17 608.906 2015.48 610.503 2012.55 610.503H1886.25Z" fill="#1D1C68"/>
<path fill-rule="evenodd" clip-rule="evenodd" d="M1200.6 916C1194.53 916 1190.67 909.508 1193.57 904.178L1268.01 767.322C1269.3 764.939 1269.3 762.061 1268.01 759.677L1193.57 622.818C1190.67 617.487 1194.53 610.995 1200.6 610.995L1326.9 610.995C1329.83 610.995 1332.52 612.593 1333.92 615.161L1412.83 759.663C1414.14 762.053 1414.14 764.942 1412.83 767.332L1333.92 911.834C1332.52 914.402 1329.83 916 1326.9 916H1200.6Z" fill="#1D1C68"/>
<path fill-rule="evenodd" clip-rule="evenodd" d="M1475.14 916C1469.07 916 1465.21 909.508 1468.11 904.178L1542.54 767.322C1543.84 764.939 1543.84 762.061 1542.54 759.677L1468.11 622.818C1465.21 617.487 1469.07 610.995 1475.14 610.995L1601.44 610.995C1604.36 610.995 1607.05 612.593 1608.46 615.161L1687.37 759.663C1688.68 762.053 1688.68 764.942 1687.37 767.332L1608.46 911.834C1607.05 914.402 1604.36 916 1601.44 916H1475.14Z" fill="#1D1C68"/>
<path fill-rule="evenodd" clip-rule="evenodd" d="M1749.68 916C1743.61 916 1739.75 909.508 1742.65 904.178L1817.08 767.322C1818.38 764.939 1818.38 762.061 1817.08 759.677L1742.65 622.818C1739.75 617.487 1743.61 610.995 1749.68 610.995L1875.98 610.995C1878.9 610.995 1881.59 612.593 1883 615.161L1961.91 759.663C1963.21 762.053 1963.21 764.942 1961.91 767.332L1883 911.834C1881.59 914.402 1878.9 916 1875.98 916H1749.68Z" fill="#1D1C68"/>
<path fill-rule="evenodd" clip-rule="evenodd" d="M926.015 916C919.947 916 916.088 909.508 918.987 904.178L993.421 767.322C994.717 764.939 994.717 762.061 993.421 759.677L918.985 622.818C916.086 617.487 919.945 610.995 926.013 610.995L1052.31 610.995C1055.24 610.995 1057.93 612.593 1059.33 615.161L1138.25 759.663C1139.55 762.053 1139.55 764.942 1138.25 767.332L1059.33 911.834C1057.93 914.402 1055.24 916 1052.31 916H926.015Z" fill="#1D1C68"/>
<path fill-rule="evenodd" clip-rule="evenodd" d="M1200.6 305.005C1194.53 305.005 1190.67 298.513 1193.57 293.182L1268.01 156.327C1269.3 153.944 1269.3 151.066 1268.01 148.683L1193.57 11.8223C1190.67 6.49154 1194.53 -2.09068e-07 1200.6 0L1326.9 4.3515e-06C1329.83 4.45231e-06 1332.52 1.59754 1333.92 4.16566L1412.84 148.668C1414.14 151.058 1414.14 153.947 1412.84 156.337L1333.92 300.839C1332.52 303.407 1329.83 305.005 1326.9 305.005H1200.6Z" fill="#1D1C68"/>
<path fill-rule="evenodd" clip-rule="evenodd" d="M1475.14 305.005C1469.07 305.005 1465.21 298.513 1468.11 293.182L1542.54 156.327C1543.84 153.944 1543.84 151.066 1542.54 148.683L1468.11 11.8223C1465.21 6.49154 1469.07 -2.09068e-07 1475.14 0L1601.44 4.3515e-06C1604.36 4.45231e-06 1607.06 1.59754 1608.46 4.16566L1687.37 148.668C1688.68 151.058 1688.68 153.947 1687.37 156.337L1608.46 300.839C1607.06 303.407 1604.36 305.005 1601.44 305.005H1475.14Z" fill="#1D1C68"/>
<path fill-rule="evenodd" clip-rule="evenodd" d="M1749.68 305.005C1743.61 305.005 1739.75 298.513 1742.65 293.182L1817.08 156.327C1818.38 153.944 1818.38 151.066 1817.08 148.683L1742.65 11.8223C1739.75 6.49154 1743.61 -2.09068e-07 1749.67 0L1875.98 4.3515e-06C1878.9 4.45231e-06 1881.59 1.59754 1883 4.16566L1961.91 148.668C1963.22 151.058 1963.22 153.947 1961.91 156.337L1883 300.839C1881.59 303.407 1878.9 305.005 1875.98 305.005H1749.68Z" fill="#1D1C68"/>
<path fill-rule="evenodd" clip-rule="evenodd" d="M926.014 305.005C919.946 305.005 916.087 298.513 918.986 293.182L993.419 156.327C994.716 153.944 994.716 151.066 993.419 148.683L918.983 11.8223C916.084 6.49154 919.943 -2.09068e-07 926.011 0L1052.31 4.3515e-06C1055.24 4.45232e-06 1057.93 1.59754 1059.33 4.16566L1138.25 148.668C1139.55 151.058 1139.55 153.947 1138.25 156.337L1059.33 300.839C1057.93 303.407 1055.24 305.005 1052.31 305.005H926.014Z" fill="#1D1C68"/>
</g>
<defs>
<clipPath id="clip0_449_10264">
<rect width="1924" height="916" fill="white"/>
</clipPath>
</defs>
</svg>
