<svg width="1264" height="577" viewBox="0 0 1264 577" fill="none" xmlns="http://www.w3.org/2000/svg">
<g clip-path="url(#clip0_1105_4)">
<g opacity="0.5">
<path d="M0 107.295C0 109.341 2.70901 110.067 3.73208 108.295L64.5205 2.99996C65.2903 1.66663 64.328 0 62.7885 0H2C0.89543 0 0 0.895431 0 2V107.295Z" fill="#171655"/>
<path d="M0 158.591C0 160.637 2.70894 161.363 3.73205 159.591L57.7323 66.0606C58.5021 64.7272 57.5398 63.0605 56.0002 63.0605H2C0.89543 63.0605 0 63.956 0 65.0605V158.591Z" fill="#171655"/>
<path d="M0 209.874C0 211.92 2.70882 212.646 3.73199 210.874L50.9309 129.134C51.7008 127.801 50.7385 126.134 49.1989 126.134H2C0.89543 126.134 0 127.029 0 128.134V209.874Z" fill="#171655"/>
<path d="M0 261.168C0 263.214 2.70898 263.94 3.73206 262.168L44.1301 192.194C44.8999 190.861 43.9376 189.194 42.398 189.194H2C0.895431 189.194 0 190.09 0 191.194V261.168Z" fill="#171655"/>
<path d="M0 312.463C0 314.51 2.70887 315.236 3.73202 313.464L37.3418 255.254C38.1116 253.921 37.1494 252.254 35.6097 252.254H2C0.89543 252.254 0 253.15 0 254.254V312.463Z" fill="#171655"/>
<path d="M0 363.759C0 365.805 2.70888 366.531 3.73202 364.759L30.5406 318.328C31.3105 316.995 30.3482 315.328 28.8086 315.328H2C0.895432 315.328 0 316.224 0 317.328V363.759Z" fill="#171655"/>
<path d="M0 415.052C0 417.098 2.70919 417.824 3.73216 416.052L23.7402 381.388C24.5098 380.055 23.5475 378.388 22.008 378.388H2C0.895432 378.388 0 379.284 0 380.388V415.052Z" fill="#171655"/>
<path d="M0 466.338C0 468.384 2.70865 469.11 3.73192 467.338L16.9509 444.449C17.7209 443.116 16.7587 441.449 15.219 441.449H2C0.895429 441.449 0 442.344 0 443.449V466.338Z" fill="#171655"/>
<path d="M0 517.633C0 519.679 2.70856 520.405 3.73188 518.634L10.1495 507.522C10.9196 506.189 9.95741 504.522 8.41765 504.522H2C0.895431 504.522 0 505.417 0 506.522V517.633Z" fill="#171655"/>
<path d="M0 569.443C0 571.346 2.52043 572.021 3.47171 570.372C4.18722 569.132 3.29214 567.583 1.86033 567.583C0.832897 567.583 0 568.415 0 569.443Z" fill="#171655"/>
<path d="M33.2524 107.295C33.2524 109.341 35.9614 110.067 36.9845 108.295L97.773 2.99996C98.5427 1.66663 97.5805 0 96.0409 0H35.2524C34.1479 0 33.2524 0.895431 33.2524 2V107.295Z" fill="#171655"/>
<path d="M33.2524 158.591C33.2524 160.637 35.9614 161.363 36.9845 159.591L90.9847 66.0606C91.7545 64.7272 90.7923 63.0605 89.2527 63.0605H35.2524C34.1479 63.0605 33.2524 63.956 33.2524 65.0605V158.591Z" fill="#171655"/>
<path d="M33.2524 209.874C33.2524 211.92 35.9613 212.646 36.9844 210.874L84.1833 129.134C84.9532 127.801 83.991 126.134 82.4513 126.134H35.2524C34.1479 126.134 33.2524 127.029 33.2524 128.134V209.874Z" fill="#171655"/>
<path d="M33.2524 261.168C33.2524 263.214 35.9614 263.94 36.9845 262.168L77.3825 192.194C78.1523 190.861 77.1901 189.194 75.6505 189.194H35.2524C34.1479 189.194 33.2524 190.09 33.2524 191.194V261.168Z" fill="#171655"/>
<path d="M33.2524 312.463C33.2524 314.51 35.9613 315.236 36.9845 313.464L70.5942 255.254C71.3641 253.921 70.4018 252.254 68.8622 252.254H35.2524C34.1479 252.254 33.2524 253.15 33.2524 254.254V312.463Z" fill="#171655"/>
<path d="M33.2524 363.759C33.2524 365.805 35.9613 366.531 36.9845 364.759L63.7931 318.328C64.5629 316.995 63.6007 315.328 62.0611 315.328H35.2524C34.1479 315.328 33.2524 316.224 33.2524 317.328V363.759Z" fill="#171655"/>
<path d="M33.2524 415.052C33.2524 417.098 35.9616 417.824 36.9846 416.052L56.9926 381.388C57.7622 380.055 56.8 378.388 55.2605 378.388H35.2524C34.1479 378.388 33.2524 379.284 33.2524 380.388V415.052Z" fill="#171655"/>
<path d="M33.2524 466.338C33.2524 468.384 35.9611 469.11 36.9844 467.338L50.2033 444.449C50.9733 443.116 50.0111 441.449 48.4714 441.449H35.2524C34.1479 441.449 33.2524 442.344 33.2524 443.449V466.338Z" fill="#171655"/>
<path d="M33.2524 517.633C33.2524 519.679 35.961 520.405 36.9843 518.634L43.402 507.522C44.1721 506.189 43.2099 504.522 41.6701 504.522H35.2524C34.1479 504.522 33.2524 505.417 33.2524 506.522V517.633Z" fill="#171655"/>
<path d="M33.2524 569.443C33.2524 571.346 35.7729 572.021 36.7242 570.372C37.4397 569.132 36.5446 567.583 35.1128 567.583C34.0853 567.583 33.2524 568.415 33.2524 569.443Z" fill="#171655"/>
<path d="M66.5049 107.295C66.5049 109.341 69.2139 110.067 70.237 108.295L131.025 2.99996C131.795 1.66663 130.833 0 129.293 0H68.5049C67.4003 0 66.5049 0.895431 66.5049 2V107.295Z" fill="#171655"/>
<path d="M66.5049 158.591C66.5049 160.637 69.2138 161.363 70.2369 159.591L124.237 66.0606C125.007 64.7272 124.045 63.0605 122.505 63.0605H68.5049C67.4003 63.0605 66.5049 63.956 66.5049 65.0605V158.591Z" fill="#171655"/>
<path d="M66.5049 209.874C66.5049 211.92 69.2137 212.646 70.2369 210.874L117.436 129.134C118.206 127.801 117.243 126.134 115.704 126.134H68.5049C67.4003 126.134 66.5049 127.029 66.5049 128.134V209.874Z" fill="#171655"/>
<path d="M66.5049 261.168C66.5049 263.214 69.2139 263.94 70.2369 262.168L110.635 192.194C111.405 190.861 110.443 189.194 108.903 189.194H68.5049C67.4003 189.194 66.5049 190.09 66.5049 191.194V261.168Z" fill="#171655"/>
<path d="M66.5049 312.463C66.5049 314.51 69.2138 315.236 70.2369 313.464L103.847 255.254C104.616 253.921 103.654 252.254 102.115 252.254H68.5049C67.4003 252.254 66.5049 253.15 66.5049 254.254V312.463Z" fill="#171655"/>
<path d="M66.5049 363.759C66.5049 365.805 69.2138 366.531 70.2369 364.759L97.0455 318.328C97.8154 316.995 96.8531 315.328 95.3135 315.328H68.5049C67.4003 315.328 66.5049 316.224 66.5049 317.328V363.759Z" fill="#171655"/>
<path d="M66.5049 415.052C66.5049 417.098 69.2141 417.824 70.237 416.052L90.2451 381.388C91.0147 380.055 90.0524 378.388 88.5129 378.388H68.5049C67.4003 378.388 66.5049 379.284 66.5049 380.388V415.052Z" fill="#171655"/>
<path d="M66.5049 466.338C66.5049 468.384 69.2135 469.11 70.2368 467.338L83.4558 444.449C84.2258 443.116 83.2636 441.449 81.7238 441.449H68.5049C67.4003 441.449 66.5049 442.344 66.5049 443.449V466.338Z" fill="#171655"/>
<path d="M66.5049 517.633C66.5049 519.679 69.2134 520.405 70.2368 518.634L76.6544 507.522C77.4245 506.189 76.4623 504.522 74.9225 504.522H68.5049C67.4003 504.522 66.5049 505.417 66.5049 506.522V517.633Z" fill="#171655"/>
<path d="M66.5049 569.443C66.5049 571.346 69.0253 572.021 69.9766 570.372C70.6921 569.132 69.797 567.583 68.3652 567.583C67.3378 567.583 66.5049 568.415 66.5049 569.443Z" fill="#171655"/>
<path d="M99.7573 107.295C99.7573 109.341 102.466 110.067 103.489 108.295L164.278 2.99996C165.048 1.66663 164.085 0 162.546 0H101.757C100.653 0 99.7573 0.895431 99.7573 2V107.295Z" fill="#171655"/>
<path d="M99.7573 158.591C99.7573 160.637 102.466 161.363 103.489 159.591L157.49 66.0606C158.259 64.7272 157.297 63.0605 155.758 63.0605H101.757C100.653 63.0605 99.7573 63.956 99.7573 65.0605V158.591Z" fill="#171655"/>
<path d="M99.7573 209.874C99.7573 211.92 102.466 212.646 103.489 210.874L150.688 129.134C151.458 127.801 150.496 126.134 148.956 126.134H101.757C100.653 126.134 99.7573 127.029 99.7573 128.134V209.874Z" fill="#171655"/>
<path d="M99.7573 261.168C99.7573 263.214 102.466 263.94 103.489 262.168L143.887 192.194C144.657 190.861 143.695 189.194 142.155 189.194H101.757C100.653 189.194 99.7573 190.09 99.7573 191.194V261.168Z" fill="#171655"/>
<path d="M99.7573 312.463C99.7573 314.51 102.466 315.236 103.489 313.464L137.099 255.254C137.869 253.921 136.907 252.254 135.367 252.254H101.757C100.653 252.254 99.7573 253.15 99.7573 254.254V312.463Z" fill="#171655"/>
<path d="M99.7573 363.759C99.7573 365.805 102.466 366.531 103.489 364.759L130.298 318.328C131.068 316.995 130.106 315.328 128.566 315.328H101.757C100.653 315.328 99.7573 316.224 99.7573 317.328V363.759Z" fill="#171655"/>
<path d="M99.7573 415.052C99.7573 417.098 102.467 417.824 103.489 416.052L123.498 381.388C124.267 380.055 123.305 378.388 121.765 378.388H101.757C100.653 378.388 99.7573 379.284 99.7573 380.388V415.052Z" fill="#171655"/>
<path d="M99.7573 466.338C99.7573 468.384 102.466 469.11 103.489 467.338L116.708 444.449C117.478 443.116 116.516 441.449 114.976 441.449H101.757C100.653 441.449 99.7573 442.344 99.7573 443.449V466.338Z" fill="#171655"/>
<path d="M99.7573 517.633C99.7573 519.679 102.466 520.405 103.489 518.634L109.907 507.522C110.677 506.189 109.715 504.522 108.175 504.522H101.757C100.653 504.522 99.7573 505.417 99.7573 506.522V517.633Z" fill="#171655"/>
<path d="M99.7573 569.443C99.7573 571.346 102.278 572.021 103.229 570.372C103.945 569.132 103.049 567.583 101.618 567.583C100.59 567.583 99.7573 568.415 99.7573 569.443Z" fill="#171655"/>
<path d="M133.01 107.295C133.01 109.341 135.719 110.067 136.742 108.295L197.53 2.99996C198.3 1.66663 197.338 0 195.798 0H135.01C133.905 0 133.01 0.895431 133.01 2V107.295Z" fill="#171655"/>
<path d="M133.01 158.591C133.01 160.637 135.719 161.363 136.742 159.591L190.742 66.0606C191.512 64.7272 190.55 63.0605 189.01 63.0605H135.01C133.905 63.0605 133.01 63.956 133.01 65.0605V158.591Z" fill="#171655"/>
<path d="M133.01 209.874C133.01 211.92 135.719 212.646 136.742 210.874L183.941 129.134C184.711 127.801 183.748 126.134 182.209 126.134H135.01C133.905 126.134 133.01 127.029 133.01 128.134V209.874Z" fill="#171655"/>
<path d="M133.01 261.168C133.01 263.214 135.719 263.94 136.742 262.168L177.14 192.194C177.91 190.861 176.947 189.194 175.408 189.194H135.01C133.905 189.194 133.01 190.09 133.01 191.194V261.168Z" fill="#171655"/>
<path d="M133.01 312.463C133.01 314.51 135.719 315.236 136.742 313.464L170.352 255.254C171.121 253.921 170.159 252.254 168.619 252.254H135.01C133.905 252.254 133.01 253.15 133.01 254.254V312.463Z" fill="#171655"/>
<path d="M133.01 363.759C133.01 365.805 135.719 366.531 136.742 364.759L163.55 318.328C164.32 316.995 163.358 315.328 161.818 315.328H135.01C133.905 315.328 133.01 316.224 133.01 317.328V363.759Z" fill="#171655"/>
<path d="M133.01 415.052C133.01 417.098 135.719 417.824 136.742 416.052L156.75 381.388C157.52 380.055 156.557 378.388 155.018 378.388H135.01C133.905 378.388 133.01 379.284 133.01 380.388V415.052Z" fill="#171655"/>
<path d="M133.01 466.338C133.01 468.384 135.718 469.11 136.742 467.338L149.961 444.449C150.731 443.116 149.768 441.449 148.229 441.449H135.01C133.905 441.449 133.01 442.344 133.01 443.449V466.338Z" fill="#171655"/>
<path d="M133.01 517.633C133.01 519.679 135.718 520.405 136.742 518.634L143.159 507.522C143.929 506.189 142.967 504.522 141.427 504.522H135.01C133.905 504.522 133.01 505.417 133.01 506.522V517.633Z" fill="#171655"/>
<path d="M133.01 569.443C133.01 571.346 135.53 572.021 136.481 570.372C137.197 569.132 136.302 567.583 134.87 567.583C133.843 567.583 133.01 568.415 133.01 569.443Z" fill="#171655"/>
<path d="M166.262 107.295C166.262 109.341 168.971 110.067 169.994 108.295L230.783 2.99996C231.553 1.66663 230.59 0 229.051 0H168.262C167.158 0 166.262 0.895431 166.262 2V107.295Z" fill="#171655"/>
<path d="M166.262 158.591C166.262 160.637 168.971 161.363 169.994 159.591L223.994 66.0606C224.764 64.7272 223.802 63.0605 222.262 63.0605H168.262C167.158 63.0605 166.262 63.956 166.262 65.0605V158.591Z" fill="#171655"/>
<path d="M166.262 209.874C166.262 211.92 168.971 212.646 169.994 210.874L217.193 129.134C217.963 127.801 217.001 126.134 215.461 126.134H168.262C167.158 126.134 166.262 127.029 166.262 128.134V209.874Z" fill="#171655"/>
<path d="M166.262 261.168C166.262 263.214 168.971 263.94 169.994 262.168L210.392 192.194C211.162 190.861 210.2 189.194 208.66 189.194H168.262C167.158 189.194 166.262 190.09 166.262 191.194V261.168Z" fill="#171655"/>
<path d="M166.262 312.463C166.262 314.51 168.971 315.236 169.994 313.464L203.604 255.254C204.374 253.921 203.412 252.254 201.872 252.254H168.262C167.158 252.254 166.262 253.15 166.262 254.254V312.463Z" fill="#171655"/>
<path d="M166.262 363.759C166.262 365.805 168.971 366.531 169.994 364.759L196.803 318.328C197.573 316.995 196.61 315.328 195.071 315.328H168.262C167.158 315.328 166.262 316.224 166.262 317.328V363.759Z" fill="#171655"/>
<path d="M166.262 415.052C166.262 417.098 168.971 417.824 169.994 416.052L190.002 381.388C190.772 380.055 189.81 378.388 188.27 378.388H168.262C167.158 378.388 166.262 379.284 166.262 380.388V415.052Z" fill="#171655"/>
<path d="M166.262 466.338C166.262 468.384 168.971 469.11 169.994 467.338L183.213 444.449C183.983 443.116 183.021 441.449 181.481 441.449H168.262C167.158 441.449 166.262 442.344 166.262 443.449V466.338Z" fill="#171655"/>
<path d="M166.262 517.633C166.262 519.679 168.971 520.405 169.994 518.634L176.412 507.522C177.182 506.189 176.22 504.522 174.68 504.522H168.262C167.158 504.522 166.262 505.417 166.262 506.522V517.633Z" fill="#171655"/>
<path d="M166.262 569.443C166.262 571.346 168.783 572.021 169.734 570.372C170.449 569.132 169.554 567.583 168.123 567.583C167.095 567.583 166.262 568.415 166.262 569.443Z" fill="#171655"/>
<path d="M199.515 107.295C199.515 109.341 202.224 110.067 203.247 108.295L264.035 2.99996C264.805 1.66663 263.843 0 262.303 0H201.515C200.41 0 199.515 0.895431 199.515 2V107.295Z" fill="#171655"/>
<path d="M199.515 158.591C199.515 160.637 202.224 161.363 203.247 159.591L257.247 66.0606C258.017 64.7272 257.054 63.0605 255.515 63.0605H201.515C200.41 63.0605 199.515 63.956 199.515 65.0605V158.591Z" fill="#171655"/>
<path d="M199.515 209.874C199.515 211.92 202.223 212.646 203.247 210.874L250.446 129.134C251.215 127.801 250.253 126.134 248.714 126.134H201.515C200.41 126.134 199.515 127.029 199.515 128.134V209.874Z" fill="#171655"/>
<path d="M199.515 261.168C199.515 263.214 202.224 263.94 203.247 262.168L243.645 192.194C244.415 190.861 243.452 189.194 241.913 189.194H201.515C200.41 189.194 199.515 190.09 199.515 191.194V261.168Z" fill="#171655"/>
<path d="M199.515 312.463C199.515 314.51 202.224 315.236 203.247 313.464L236.856 255.254C237.626 253.921 236.664 252.254 235.124 252.254H201.515C200.41 252.254 199.515 253.15 199.515 254.254V312.463Z" fill="#171655"/>
<path d="M199.515 363.759C199.515 365.805 202.224 366.531 203.247 364.759L230.055 318.328C230.825 316.995 229.863 315.328 228.323 315.328H201.515C200.41 315.328 199.515 316.224 199.515 317.328V363.759Z" fill="#171655"/>
<path d="M199.515 415.052C199.515 417.098 202.224 417.824 203.247 416.052L223.255 381.388C224.024 380.055 223.062 378.388 221.523 378.388H201.515C200.41 378.388 199.515 379.284 199.515 380.388V415.052Z" fill="#171655"/>
<path d="M199.515 466.338C199.515 468.384 202.223 469.11 203.247 467.338L216.466 444.449C217.236 443.116 216.273 441.449 214.734 441.449H201.515C200.41 441.449 199.515 442.344 199.515 443.449V466.338Z" fill="#171655"/>
<path d="M199.515 517.633C199.515 519.679 202.223 520.405 203.247 518.634L209.664 507.522C210.434 506.189 209.472 504.522 207.932 504.522H201.515C200.41 504.522 199.515 505.417 199.515 506.522V517.633Z" fill="#171655"/>
<path d="M199.515 569.443C199.515 571.346 202.035 572.021 202.986 570.372C203.702 569.132 202.807 567.583 201.375 567.583C200.348 567.583 199.515 568.415 199.515 569.443Z" fill="#171655"/>
<path d="M232.767 107.295C232.767 109.341 235.476 110.067 236.499 108.295L297.288 2.99996C298.057 1.66663 297.095 0 295.556 0H234.767C233.663 0 232.767 0.895431 232.767 2V107.295Z" fill="#171655"/>
<path d="M232.767 158.591C232.767 160.637 235.476 161.363 236.499 159.591L290.499 66.0606C291.269 64.7272 290.307 63.0605 288.767 63.0605H234.767C233.663 63.0605 232.767 63.956 232.767 65.0605V158.591Z" fill="#171655"/>
<path d="M232.767 209.874C232.767 211.92 235.476 212.646 236.499 210.874L283.698 129.134C284.468 127.801 283.506 126.134 281.966 126.134H234.767C233.663 126.134 232.767 127.029 232.767 128.134V209.874Z" fill="#171655"/>
<path d="M232.767 261.168C232.767 263.214 235.476 263.94 236.499 262.168L276.897 192.194C277.667 190.861 276.705 189.194 275.165 189.194H234.767C233.663 189.194 232.767 190.09 232.767 191.194V261.168Z" fill="#171655"/>
<path d="M232.767 312.463C232.767 314.51 235.476 315.236 236.499 313.464L270.109 255.254C270.879 253.921 269.916 252.254 268.377 252.254H234.767C233.663 252.254 232.767 253.15 232.767 254.254V312.463Z" fill="#171655"/>
<path d="M232.767 363.759C232.767 365.805 235.476 366.531 236.499 364.759L263.308 318.328C264.078 316.995 263.115 315.328 261.576 315.328H234.767C233.663 315.328 232.767 316.224 232.767 317.328V363.759Z" fill="#171655"/>
<path d="M232.767 415.052C232.767 417.098 235.476 417.824 236.499 416.052L256.507 381.388C257.277 380.055 256.315 378.388 254.775 378.388H234.767C233.663 378.388 232.767 379.284 232.767 380.388V415.052Z" fill="#171655"/>
<path d="M232.767 466.338C232.767 468.384 235.476 469.11 236.499 467.338L249.718 444.449C250.488 443.116 249.526 441.449 247.986 441.449H234.767C233.663 441.449 232.767 442.344 232.767 443.449V466.338Z" fill="#171655"/>
<path d="M232.767 517.633C232.767 519.679 235.476 520.405 236.499 518.634L242.917 507.522C243.687 506.189 242.724 504.522 241.185 504.522H234.767C233.663 504.522 232.767 505.417 232.767 506.522V517.633Z" fill="#171655"/>
<path d="M232.767 569.443C232.767 571.346 235.288 572.021 236.239 570.372C236.954 569.132 236.059 567.583 234.627 567.583C233.6 567.583 232.767 568.415 232.767 569.443Z" fill="#171655"/>
<path d="M266.02 107.295C266.02 109.341 268.729 110.067 269.752 108.295L330.54 2.99996C331.31 1.66663 330.348 0 328.808 0H268.02C266.915 0 266.02 0.895431 266.02 2V107.295Z" fill="#171655"/>
<path d="M266.02 158.591C266.02 160.637 268.728 161.363 269.752 159.591L323.752 66.0606C324.522 64.7272 323.559 63.0605 322.02 63.0605H268.02C266.915 63.0605 266.02 63.956 266.02 65.0605V158.591Z" fill="#171655"/>
<path d="M266.02 209.874C266.02 211.92 268.728 212.646 269.752 210.874L316.95 129.134C317.72 127.801 316.758 126.134 315.218 126.134H268.02C266.915 126.134 266.02 127.029 266.02 128.134V209.874Z" fill="#171655"/>
<path d="M266.02 261.168C266.02 263.214 268.729 263.94 269.752 262.168L310.15 192.194C310.919 190.861 309.957 189.194 308.418 189.194H268.02C266.915 189.194 266.02 190.09 266.02 191.194V261.168Z" fill="#171655"/>
<path d="M266.02 312.463C266.02 314.51 268.728 315.236 269.752 313.464L303.361 255.254C304.131 253.921 303.169 252.254 301.629 252.254H268.02C266.915 252.254 266.02 253.15 266.02 254.254V312.463Z" fill="#171655"/>
<path d="M266.02 363.759C266.02 365.805 268.728 366.531 269.752 364.759L296.56 318.328C297.33 316.995 296.368 315.328 294.828 315.328H268.02C266.915 315.328 266.02 316.224 266.02 317.328V363.759Z" fill="#171655"/>
<path d="M266.02 415.052C266.02 417.098 268.729 417.824 269.752 416.052L289.76 381.388C290.529 380.055 289.567 378.388 288.028 378.388H268.02C266.915 378.388 266.02 379.284 266.02 380.388V415.052Z" fill="#171655"/>
<path d="M266.02 466.338C266.02 468.384 268.728 469.11 269.751 467.338L282.97 444.449C283.74 443.116 282.778 441.449 281.238 441.449H268.02C266.915 441.449 266.02 442.344 266.02 443.449V466.338Z" fill="#171655"/>
<path d="M266.02 517.633C266.02 519.679 268.728 520.405 269.751 518.634L276.169 507.522C276.939 506.189 275.977 504.522 274.437 504.522H268.02C266.915 504.522 266.02 505.417 266.02 506.522V517.633Z" fill="#171655"/>
<path d="M266.02 569.443C266.02 571.346 268.54 572.021 269.491 570.372C270.207 569.132 269.312 567.583 267.88 567.583C266.852 567.583 266.02 568.415 266.02 569.443Z" fill="#171655"/>
<path d="M299.272 107.295C299.272 109.341 301.981 110.067 303.004 108.295L363.793 2.99996C364.562 1.66663 363.6 0 362.06 0H301.272C300.167 0 299.272 0.895431 299.272 2V107.295Z" fill="#171655"/>
<path d="M299.272 158.591C299.272 160.637 301.981 161.363 303.004 159.591L357.004 66.0606C357.774 64.7272 356.812 63.0605 355.272 63.0605H301.272C300.167 63.0605 299.272 63.956 299.272 65.0605V158.591Z" fill="#171655"/>
<path d="M299.272 209.874C299.272 211.92 301.981 212.646 303.004 210.874L350.203 129.134C350.973 127.801 350.011 126.134 348.471 126.134H301.272C300.167 126.134 299.272 127.029 299.272 128.134V209.874Z" fill="#171655"/>
<path d="M299.272 261.168C299.272 263.214 301.981 263.94 303.004 262.168L343.402 192.194C344.172 190.861 343.21 189.194 341.67 189.194H301.272C300.167 189.194 299.272 190.09 299.272 191.194V261.168Z" fill="#171655"/>
<path d="M299.272 312.463C299.272 314.51 301.981 315.236 303.004 313.464L336.614 255.254C337.384 253.921 336.421 252.254 334.882 252.254H301.272C300.167 252.254 299.272 253.15 299.272 254.254V312.463Z" fill="#171655"/>
<path d="M299.272 363.759C299.272 365.805 301.981 366.531 303.004 364.759L329.813 318.328C330.582 316.995 329.62 315.328 328.081 315.328H301.272C300.167 315.328 299.272 316.224 299.272 317.328V363.759Z" fill="#171655"/>
<path d="M299.272 415.052C299.272 417.098 301.981 417.824 303.004 416.052L323.012 381.388C323.782 380.055 322.82 378.388 321.28 378.388H301.272C300.167 378.388 299.272 379.284 299.272 380.388V415.052Z" fill="#171655"/>
<path d="M299.272 466.338C299.272 468.384 301.981 469.11 303.004 467.338L316.223 444.449C316.993 443.116 316.031 441.449 314.491 441.449H301.272C300.167 441.449 299.272 442.344 299.272 443.449V466.338Z" fill="#171655"/>
<path d="M299.272 517.633C299.272 519.679 301.981 520.405 303.004 518.634L309.422 507.522C310.192 506.189 309.229 504.522 307.69 504.522H301.272C300.167 504.522 299.272 505.417 299.272 506.522V517.633Z" fill="#171655"/>
<path d="M299.272 569.443C299.272 571.346 301.792 572.021 302.744 570.372C303.459 569.132 302.564 567.583 301.132 567.583C300.105 567.583 299.272 568.415 299.272 569.443Z" fill="#171655"/>
<path d="M332.524 107.295C332.524 109.341 335.233 110.067 336.256 108.295L397.045 2.99996C397.815 1.66663 396.852 0 395.313 0H334.524C333.42 0 332.524 0.895431 332.524 2V107.295Z" fill="#171655"/>
<path d="M332.524 158.591C332.524 160.637 335.233 161.363 336.256 159.591L390.257 66.0606C391.027 64.7272 390.064 63.0605 388.525 63.0605H334.524C333.42 63.0605 332.524 63.956 332.524 65.0605V158.591Z" fill="#171655"/>
<path d="M332.524 209.874C332.524 211.92 335.233 212.646 336.256 210.874L383.455 129.134C384.225 127.801 383.263 126.134 381.723 126.134H334.524C333.42 126.134 332.524 127.029 332.524 128.134V209.874Z" fill="#171655"/>
<path d="M332.524 261.168C332.524 263.214 335.233 263.94 336.256 262.168L376.655 192.194C377.424 190.861 376.462 189.194 374.922 189.194H334.524C333.42 189.194 332.524 190.09 332.524 191.194V261.168Z" fill="#171655"/>
<path d="M332.524 312.463C332.524 314.51 335.233 315.236 336.256 313.464L369.866 255.254C370.636 253.921 369.674 252.254 368.134 252.254H334.524C333.42 252.254 332.524 253.15 332.524 254.254V312.463Z" fill="#171655"/>
<path d="M332.524 363.759C332.524 365.805 335.233 366.531 336.256 364.759L363.065 318.328C363.835 316.995 362.873 315.328 361.333 315.328H334.524C333.42 315.328 332.524 316.224 332.524 317.328V363.759Z" fill="#171655"/>
<path d="M332.524 415.052C332.524 417.098 335.234 417.824 336.257 416.052L356.265 381.388C357.034 380.055 356.072 378.388 354.532 378.388H334.524C333.42 378.388 332.524 379.284 332.524 380.388V415.052Z" fill="#171655"/>
<path d="M332.524 466.338C332.524 468.384 335.233 469.11 336.256 467.338L349.475 444.449C350.245 443.116 349.283 441.449 347.743 441.449H334.524C333.42 441.449 332.524 442.344 332.524 443.449V466.338Z" fill="#171655"/>
<path d="M332.524 517.633C332.524 519.679 335.233 520.405 336.256 518.634L342.674 507.522C343.444 506.189 342.482 504.522 340.942 504.522H334.524C333.42 504.522 332.524 505.417 332.524 506.522V517.633Z" fill="#171655"/>
<path d="M332.524 569.443C332.524 571.346 335.045 572.021 335.996 570.372C336.712 569.132 335.817 567.583 334.385 567.583C333.357 567.583 332.524 568.415 332.524 569.443Z" fill="#171655"/>
<path d="M365.777 107.295C365.777 109.341 368.486 110.067 369.509 108.295L430.297 2.99996C431.067 1.66663 430.105 0 428.565 0H367.777C366.672 0 365.777 0.895431 365.777 2V107.295Z" fill="#171655"/>
<path d="M365.777 158.591C365.777 160.637 368.486 161.363 369.509 159.591L423.509 66.0606C424.279 64.7272 423.317 63.0605 421.777 63.0605H367.777C366.672 63.0605 365.777 63.956 365.777 65.0605V158.591Z" fill="#171655"/>
<path d="M365.777 209.874C365.777 211.92 368.486 212.646 369.509 210.874L416.708 129.134C417.478 127.801 416.515 126.134 414.976 126.134H367.777C366.672 126.134 365.777 127.029 365.777 128.134V209.874Z" fill="#171655"/>
<path d="M365.777 261.168C365.777 263.214 368.486 263.94 369.509 262.168L409.907 192.194C410.677 190.861 409.714 189.194 408.175 189.194H367.777C366.672 189.194 365.777 190.09 365.777 191.194V261.168Z" fill="#171655"/>
<path d="M365.777 312.463C365.777 314.51 368.486 315.236 369.509 313.464L403.119 255.254C403.888 253.921 402.926 252.254 401.387 252.254H367.777C366.672 252.254 365.777 253.15 365.777 254.254V312.463Z" fill="#171655"/>
<path d="M365.777 363.759C365.777 365.805 368.486 366.531 369.509 364.759L396.317 318.328C397.087 316.995 396.125 315.328 394.585 315.328H367.777C366.672 315.328 365.777 316.224 365.777 317.328V363.759Z" fill="#171655"/>
<path d="M365.777 415.052C365.777 417.098 368.486 417.824 369.509 416.052L389.517 381.388C390.287 380.055 389.324 378.388 387.785 378.388H367.777C366.672 378.388 365.777 379.284 365.777 380.388V415.052Z" fill="#171655"/>
<path d="M365.777 466.338C365.777 468.384 368.486 469.11 369.509 467.338L382.728 444.449C383.498 443.116 382.536 441.449 380.996 441.449H367.777C366.672 441.449 365.777 442.344 365.777 443.449V466.338Z" fill="#171655"/>
<path d="M365.777 517.633C365.777 519.679 368.485 520.405 369.509 518.634L375.926 507.522C376.696 506.189 375.734 504.522 374.195 504.522H367.777C366.672 504.522 365.777 505.417 365.777 506.522V517.633Z" fill="#171655"/>
<path d="M365.777 569.443C365.777 571.346 368.297 572.021 369.249 570.372C369.964 569.132 369.069 567.583 367.637 567.583C366.61 567.583 365.777 568.415 365.777 569.443Z" fill="#171655"/>
<path d="M399.029 107.295C399.029 109.341 401.738 110.067 402.761 108.295L463.55 2.99996C464.32 1.66663 463.357 0 461.818 0H401.029C399.925 0 399.029 0.895431 399.029 2V107.295Z" fill="#171655"/>
<path d="M399.029 158.591C399.029 160.637 401.738 161.363 402.761 159.591L456.762 66.0606C457.531 64.7272 456.569 63.0605 455.03 63.0605H401.029C399.925 63.0605 399.029 63.956 399.029 65.0605V158.591Z" fill="#171655"/>
<path d="M399.029 209.874C399.029 211.92 401.738 212.646 402.761 210.874L449.96 129.134C450.73 127.801 449.768 126.134 448.228 126.134H401.029C399.925 126.134 399.029 127.029 399.029 128.134V209.874Z" fill="#171655"/>
<path d="M399.029 261.168C399.029 263.214 401.738 263.94 402.761 262.168L443.159 192.194C443.929 190.861 442.967 189.194 441.427 189.194H401.029C399.925 189.194 399.029 190.09 399.029 191.194V261.168Z" fill="#171655"/>
<path d="M399.029 312.463C399.029 314.51 401.738 315.236 402.761 313.464L436.371 255.254C437.141 253.921 436.179 252.254 434.639 252.254H401.029C399.925 252.254 399.029 253.15 399.029 254.254V312.463Z" fill="#171655"/>
<path d="M399.029 363.759C399.029 365.805 401.738 366.531 402.761 364.759L429.57 318.328C430.34 316.995 429.378 315.328 427.838 315.328H401.029C399.925 315.328 399.029 316.224 399.029 317.328V363.759Z" fill="#171655"/>
<path d="M399.029 415.052C399.029 417.098 401.738 417.824 402.761 416.052L422.769 381.388C423.539 380.055 422.577 378.388 421.037 378.388H401.029C399.925 378.388 399.029 379.284 399.029 380.388V415.052Z" fill="#171655"/>
<path d="M399.029 466.338C399.029 468.384 401.738 469.11 402.761 467.338L415.98 444.449C416.75 443.116 415.788 441.449 414.248 441.449H401.029C399.925 441.449 399.029 442.344 399.029 443.449V466.338Z" fill="#171655"/>
<path d="M399.029 517.633C399.029 519.679 401.738 520.405 402.761 518.634L409.179 507.522C409.949 506.189 408.987 504.522 407.447 504.522H401.029C399.925 504.522 399.029 505.417 399.029 506.522V517.633Z" fill="#171655"/>
<path d="M399.029 569.443C399.029 571.346 401.55 572.021 402.501 570.372C403.217 569.132 402.321 567.583 400.89 567.583C399.862 567.583 399.029 568.415 399.029 569.443Z" fill="#171655"/>
<path d="M432.282 107.295C432.282 109.341 434.991 110.067 436.014 108.295L496.802 2.99996C497.572 1.66663 496.61 0 495.07 0H434.282C433.177 0 432.282 0.895431 432.282 2V107.295Z" fill="#171655"/>
<path d="M432.282 158.591C432.282 160.637 434.991 161.363 436.014 159.591L490.014 66.0606C490.784 64.7272 489.822 63.0605 488.282 63.0605H434.282C433.177 63.0605 432.282 63.956 432.282 65.0605V158.591Z" fill="#171655"/>
<path d="M432.282 209.874C432.282 211.92 434.991 212.646 436.014 210.874L483.213 129.134C483.983 127.801 483.02 126.134 481.481 126.134H434.282C433.177 126.134 432.282 127.029 432.282 128.134V209.874Z" fill="#171655"/>
<path d="M432.282 261.168C432.282 263.214 434.991 263.94 436.014 262.168L476.412 192.194C477.182 190.861 476.219 189.194 474.68 189.194H434.282C433.177 189.194 432.282 190.09 432.282 191.194V261.168Z" fill="#171655"/>
<path d="M432.282 312.463C432.282 314.51 434.991 315.236 436.014 313.464L469.623 255.254C470.393 253.921 469.431 252.254 467.891 252.254H434.282C433.177 252.254 432.282 253.15 432.282 254.254V312.463Z" fill="#171655"/>
<path d="M432.282 363.759C432.282 365.805 434.991 366.531 436.014 364.759L462.822 318.328C463.592 316.995 462.63 315.328 461.09 315.328H434.282C433.177 315.328 432.282 316.224 432.282 317.328V363.759Z" fill="#171655"/>
<path d="M432.282 415.052C432.282 417.098 434.991 417.824 436.014 416.052L456.022 381.388C456.792 380.055 455.829 378.388 454.29 378.388H434.282C433.177 378.388 432.282 379.284 432.282 380.388V415.052Z" fill="#171655"/>
<path d="M432.282 466.338C432.282 468.384 434.99 469.11 436.014 467.338L449.233 444.449C450.003 443.116 449.04 441.449 447.501 441.449H434.282C433.177 441.449 432.282 442.344 432.282 443.449V466.338Z" fill="#171655"/>
<path d="M432.282 517.633C432.282 519.679 434.99 520.405 436.014 518.634L442.431 507.522C443.201 506.189 442.239 504.522 440.699 504.522H434.282C433.177 504.522 432.282 505.417 432.282 506.522V517.633Z" fill="#171655"/>
<path d="M432.282 569.443C432.282 571.346 434.802 572.021 435.753 570.372C436.469 569.132 435.574 567.583 434.142 567.583C433.115 567.583 432.282 568.415 432.282 569.443Z" fill="#171655"/>
<path d="M465.534 107.295C465.534 109.341 468.243 110.067 469.266 108.295L530.055 2.99996C530.824 1.66663 529.862 0 528.323 0H467.534C466.43 0 465.534 0.895431 465.534 2V107.295Z" fill="#171655"/>
<path d="M465.534 158.591C465.534 160.637 468.243 161.363 469.266 159.591L523.266 66.0606C524.036 64.7272 523.074 63.0605 521.534 63.0605H467.534C466.43 63.0605 465.534 63.956 465.534 65.0605V158.591Z" fill="#171655"/>
<path d="M465.534 209.874C465.534 211.92 468.243 212.646 469.266 210.874L516.465 129.134C517.235 127.801 516.273 126.134 514.733 126.134H467.534C466.43 126.134 465.534 127.029 465.534 128.134V209.874Z" fill="#171655"/>
<path d="M465.534 261.168C465.534 263.214 468.243 263.94 469.266 262.168L509.664 192.194C510.434 190.861 509.472 189.194 507.932 189.194H467.534C466.43 189.194 465.534 190.09 465.534 191.194V261.168Z" fill="#171655"/>
<path d="M465.534 312.463C465.534 314.51 468.243 315.236 469.266 313.464L502.876 255.254C503.646 253.921 502.684 252.254 501.144 252.254H467.534C466.43 252.254 465.534 253.15 465.534 254.254V312.463Z" fill="#171655"/>
<path d="M465.534 363.759C465.534 365.805 468.243 366.531 469.266 364.759L496.075 318.328C496.845 316.995 495.882 315.328 494.343 315.328H467.534C466.43 315.328 465.534 316.224 465.534 317.328V363.759Z" fill="#171655"/>
<path d="M465.534 415.052C465.534 417.098 468.243 417.824 469.266 416.052L489.274 381.388C490.044 380.055 489.082 378.388 487.542 378.388H467.534C466.43 378.388 465.534 379.284 465.534 380.388V415.052Z" fill="#171655"/>
<path d="M465.534 466.338C465.534 468.384 468.243 469.11 469.266 467.338L482.485 444.449C483.255 443.116 482.293 441.449 480.753 441.449H467.534C466.43 441.449 465.534 442.344 465.534 443.449V466.338Z" fill="#171655"/>
<path d="M465.534 517.633C465.534 519.679 468.243 520.405 469.266 518.634L475.684 507.522C476.454 506.189 475.492 504.522 473.952 504.522H467.534C466.43 504.522 465.534 505.417 465.534 506.522V517.633Z" fill="#171655"/>
<path d="M465.534 569.443C465.534 571.346 468.055 572.021 469.006 570.372C469.721 569.132 468.826 567.583 467.395 567.583C466.367 567.583 465.534 568.415 465.534 569.443Z" fill="#171655"/>
<path d="M498.787 107.295C498.787 109.341 501.496 110.067 502.519 108.295L563.307 2.99996C564.077 1.66663 563.115 0 561.575 0H500.787C499.682 0 498.787 0.895431 498.787 2V107.295Z" fill="#171655"/>
<path d="M498.787 158.591C498.787 160.637 501.496 161.363 502.519 159.591L556.519 66.0606C557.289 64.7272 556.326 63.0605 554.787 63.0605H500.787C499.682 63.0605 498.787 63.956 498.787 65.0605V158.591Z" fill="#171655"/>
<path d="M498.787 209.874C498.787 211.92 501.495 212.646 502.519 210.874L549.718 129.134C550.487 127.801 549.525 126.134 547.986 126.134H500.787C499.682 126.134 498.787 127.029 498.787 128.134V209.874Z" fill="#171655"/>
<path d="M498.787 261.168C498.787 263.214 501.496 263.94 502.519 262.168L542.917 192.194C543.687 190.861 542.724 189.194 541.185 189.194H500.787C499.682 189.194 498.787 190.09 498.787 191.194V261.168Z" fill="#171655"/>
<path d="M498.787 312.463C498.787 314.51 501.495 315.236 502.519 313.464L536.128 255.254C536.898 253.921 535.936 252.254 534.396 252.254H500.787C499.682 252.254 498.787 253.15 498.787 254.254V312.463Z" fill="#171655"/>
<path d="M498.787 363.759C498.787 365.805 501.496 366.531 502.519 364.759L529.327 318.328C530.097 316.995 529.135 315.328 527.595 315.328H500.787C499.682 315.328 498.787 316.224 498.787 317.328V363.759Z" fill="#171655"/>
<path d="M498.787 415.052C498.787 417.098 501.496 417.824 502.519 416.052L522.527 381.388C523.296 380.055 522.334 378.388 520.795 378.388H500.787C499.682 378.388 498.787 379.284 498.787 380.388V415.052Z" fill="#171655"/>
<path d="M498.787 466.338C498.787 468.384 501.495 469.11 502.519 467.338L515.737 444.449C516.508 443.116 515.545 441.449 514.006 441.449H500.787C499.682 441.449 498.787 442.344 498.787 443.449V466.338Z" fill="#171655"/>
<path d="M498.787 517.633C498.787 519.679 501.495 520.405 502.518 518.634L508.936 507.522C509.706 506.189 508.744 504.522 507.204 504.522H500.787C499.682 504.522 498.787 505.417 498.787 506.522V517.633Z" fill="#171655"/>
<path d="M498.787 569.443C498.787 571.346 501.307 572.021 502.258 570.372C502.974 569.132 502.079 567.583 500.647 567.583C499.62 567.583 498.787 568.415 498.787 569.443Z" fill="#171655"/>
<path d="M532.039 107.295C532.039 109.341 534.748 110.067 535.771 108.295L596.56 2.99996C597.329 1.66663 596.367 0 594.828 0H534.039C532.934 0 532.039 0.895431 532.039 2V107.295Z" fill="#171655"/>
<path d="M532.039 158.591C532.039 160.637 534.748 161.363 535.771 159.591L589.771 66.0606C590.541 64.7272 589.579 63.0605 588.039 63.0605H534.039C532.934 63.0605 532.039 63.956 532.039 65.0605V158.591Z" fill="#171655"/>
<path d="M532.039 209.874C532.039 211.92 534.748 212.646 535.771 210.874L582.97 129.134C583.74 127.801 582.778 126.134 581.238 126.134H534.039C532.934 126.134 532.039 127.029 532.039 128.134V209.874Z" fill="#171655"/>
<path d="M532.039 261.168C532.039 263.214 534.748 263.94 535.771 262.168L576.169 192.194C576.939 190.861 575.977 189.194 574.437 189.194H534.039C532.934 189.194 532.039 190.09 532.039 191.194V261.168Z" fill="#171655"/>
<path d="M532.039 312.463C532.039 314.51 534.748 315.236 535.771 313.464L569.381 255.254C570.151 253.921 569.188 252.254 567.649 252.254H534.039C532.934 252.254 532.039 253.15 532.039 254.254V312.463Z" fill="#171655"/>
<path d="M532.039 363.759C532.039 365.805 534.748 366.531 535.771 364.759L562.58 318.328C563.35 316.995 562.387 315.328 560.848 315.328H534.039C532.934 315.328 532.039 316.224 532.039 317.328V363.759Z" fill="#171655"/>
<path d="M532.039 415.052C532.039 417.098 534.748 417.824 535.771 416.052L555.779 381.388C556.549 380.055 555.587 378.388 554.047 378.388H534.039C532.934 378.388 532.039 379.284 532.039 380.388V415.052Z" fill="#171655"/>
<path d="M532.039 466.338C532.039 468.384 534.748 469.11 535.771 467.338L548.99 444.449C549.76 443.116 548.798 441.449 547.258 441.449H534.039C532.934 441.449 532.039 442.344 532.039 443.449V466.338Z" fill="#171655"/>
<path d="M532.039 517.633C532.039 519.679 534.748 520.405 535.771 518.634L542.189 507.522C542.959 506.189 541.996 504.522 540.457 504.522H534.039C532.934 504.522 532.039 505.417 532.039 506.522V517.633Z" fill="#171655"/>
<path d="M532.039 569.443C532.039 571.346 534.559 572.021 535.511 570.372C536.226 569.132 535.331 567.583 533.899 567.583C532.872 567.583 532.039 568.415 532.039 569.443Z" fill="#171655"/>
<path d="M565.292 107.295C565.292 109.341 568.001 110.067 569.024 108.295L629.812 2.99996C630.582 1.66663 629.62 0 628.08 0H567.292C566.187 0 565.292 0.895431 565.292 2V107.295Z" fill="#171655"/>
<path d="M565.292 158.591C565.292 160.637 568 161.363 569.024 159.591L623.024 66.0606C623.794 64.7272 622.831 63.0605 621.292 63.0605H567.292C566.187 63.0605 565.292 63.956 565.292 65.0605V158.591Z" fill="#171655"/>
<path d="M565.292 209.874C565.292 211.92 568 212.646 569.023 210.874L616.222 129.134C616.992 127.801 616.03 126.134 614.49 126.134H567.292C566.187 126.134 565.292 127.029 565.292 128.134V209.874Z" fill="#171655"/>
<path d="M565.292 261.168C565.292 263.214 568 263.94 569.024 262.168L609.422 192.194C610.191 190.861 609.229 189.194 607.69 189.194H567.292C566.187 189.194 565.292 190.09 565.292 191.194V261.168Z" fill="#171655"/>
<path d="M565.292 312.463C565.292 314.51 568 315.236 569.024 313.464L602.633 255.254C603.403 253.921 602.441 252.254 600.901 252.254H567.292C566.187 252.254 565.292 253.15 565.292 254.254V312.463Z" fill="#171655"/>
<path d="M565.292 363.759C565.292 365.805 568 366.531 569.024 364.759L595.832 318.328C596.602 316.995 595.64 315.328 594.1 315.328H567.292C566.187 315.328 565.292 316.224 565.292 317.328V363.759Z" fill="#171655"/>
<path d="M565.292 415.052C565.292 417.098 568.001 417.824 569.024 416.052L589.032 381.388C589.801 380.055 588.839 378.388 587.3 378.388H567.292C566.187 378.388 565.292 379.284 565.292 380.388V415.052Z" fill="#171655"/>
<path d="M565.292 466.338C565.292 468.384 568 469.11 569.023 467.338L582.242 444.449C583.012 443.116 582.05 441.449 580.51 441.449H567.292C566.187 441.449 565.292 442.344 565.292 443.449V466.338Z" fill="#171655"/>
<path d="M565.292 517.633C565.292 519.679 568 520.405 569.023 518.634L575.441 507.522C576.211 506.189 575.249 504.522 573.709 504.522H567.292C566.187 504.522 565.292 505.417 565.292 506.522V517.633Z" fill="#171655"/>
<path d="M565.292 569.443C565.292 571.346 567.812 572.021 568.763 570.372C569.479 569.132 568.584 567.583 567.152 567.583C566.124 567.583 565.292 568.415 565.292 569.443Z" fill="#171655"/>
<path d="M598.544 107.295C598.544 109.341 601.253 110.067 602.276 108.295L663.064 2.99996C663.834 1.66663 662.872 0 661.332 0H600.544C599.439 0 598.544 0.895431 598.544 2V107.295Z" fill="#171655"/>
<path d="M598.544 158.591C598.544 160.637 601.253 161.363 602.276 159.591L656.276 66.0606C657.046 64.7272 656.084 63.0605 654.544 63.0605H600.544C599.439 63.0605 598.544 63.956 598.544 65.0605V158.591Z" fill="#171655"/>
<path d="M598.544 209.874C598.544 211.92 601.253 212.646 602.276 210.874L649.475 129.134C650.245 127.801 649.282 126.134 647.743 126.134H600.544C599.439 126.134 598.544 127.029 598.544 128.134V209.874Z" fill="#171655"/>
<path d="M598.544 261.168C598.544 263.214 601.253 263.94 602.276 262.168L642.674 192.194C643.444 190.861 642.482 189.194 640.942 189.194H600.544C599.439 189.194 598.544 190.09 598.544 191.194V261.168Z" fill="#171655"/>
<path d="M598.544 312.463C598.544 314.51 601.253 315.236 602.276 313.464L635.886 255.254C636.656 253.921 635.693 252.254 634.154 252.254H600.544C599.439 252.254 598.544 253.15 598.544 254.254V312.463Z" fill="#171655"/>
<path d="M598.544 363.759C598.544 365.805 601.253 366.531 602.276 364.759L629.085 318.328C629.854 316.995 628.892 315.328 627.353 315.328H600.544C599.439 315.328 598.544 316.224 598.544 317.328V363.759Z" fill="#171655"/>
<path d="M598.544 415.052C598.544 417.098 601.253 417.824 602.276 416.052L622.284 381.388C623.054 380.055 622.091 378.388 620.552 378.388H600.544C599.439 378.388 598.544 379.284 598.544 380.388V415.052Z" fill="#171655"/>
<path d="M598.544 466.338C598.544 468.384 601.253 469.11 602.276 467.338L615.495 444.449C616.265 443.116 615.303 441.449 613.763 441.449H600.544C599.439 441.449 598.544 442.344 598.544 443.449V466.338Z" fill="#171655"/>
<path d="M598.544 517.633C598.544 519.679 601.253 520.405 602.276 518.634L608.693 507.522C609.464 506.189 608.501 504.522 606.962 504.522H600.544C599.439 504.522 598.544 505.417 598.544 506.522V517.633Z" fill="#171655"/>
<path d="M598.544 569.443C598.544 571.346 601.064 572.021 602.016 570.372C602.731 569.132 601.836 567.583 600.404 567.583C599.377 567.583 598.544 568.415 598.544 569.443Z" fill="#171655"/>
<path d="M631.796 107.295C631.796 109.341 634.505 110.067 635.528 108.295L696.317 2.99996C697.087 1.66663 696.124 0 694.585 0H633.796C632.692 0 631.796 0.895431 631.796 2V107.295Z" fill="#171655"/>
<path d="M631.796 158.591C631.796 160.637 634.505 161.363 635.528 159.591L689.529 66.0606C690.298 64.7272 689.336 63.0605 687.797 63.0605H633.796C632.692 63.0605 631.796 63.956 631.796 65.0605V158.591Z" fill="#171655"/>
<path d="M631.796 209.874C631.796 211.92 634.505 212.646 635.528 210.874L682.727 129.134C683.497 127.801 682.535 126.134 680.995 126.134H633.796C632.692 126.134 631.796 127.029 631.796 128.134V209.874Z" fill="#171655"/>
<path d="M631.796 261.168C631.796 263.214 634.505 263.94 635.528 262.168L675.926 192.194C676.696 190.861 675.734 189.194 674.194 189.194H633.796C632.692 189.194 631.796 190.09 631.796 191.194V261.168Z" fill="#171655"/>
<path d="M631.796 312.463C631.796 314.51 634.505 315.236 635.528 313.464L669.138 255.254C669.908 253.921 668.946 252.254 667.406 252.254H633.796C632.692 252.254 631.796 253.15 631.796 254.254V312.463Z" fill="#171655"/>
<path d="M631.796 363.759C631.796 365.805 634.505 366.531 635.528 364.759L662.337 318.328C663.107 316.995 662.145 315.328 660.605 315.328H633.796C632.692 315.328 631.796 316.224 631.796 317.328V363.759Z" fill="#171655"/>
<path d="M631.796 415.052C631.796 417.098 634.506 417.824 635.529 416.052L655.537 381.388C656.306 380.055 655.344 378.388 653.804 378.388H633.796C632.692 378.388 631.796 379.284 631.796 380.388V415.052Z" fill="#171655"/>
<path d="M631.796 466.338C631.796 468.384 634.505 469.11 635.528 467.338L648.747 444.449C649.517 443.116 648.555 441.449 647.015 441.449H633.796C632.692 441.449 631.796 442.344 631.796 443.449V466.338Z" fill="#171655"/>
<path d="M631.796 517.633C631.796 519.679 634.505 520.405 635.528 518.634L641.946 507.522C642.716 506.189 641.754 504.522 640.214 504.522H633.796C632.692 504.522 631.796 505.417 631.796 506.522V517.633Z" fill="#171655"/>
<path d="M631.796 569.443C631.796 571.346 634.317 572.021 635.268 570.372C635.984 569.132 635.089 567.583 633.657 567.583C632.629 567.583 631.796 568.415 631.796 569.443Z" fill="#171655"/>
<path d="M665.049 107.295C665.049 109.341 667.758 110.067 668.781 108.295L729.569 2.99996C730.339 1.66663 729.377 0 727.837 0H667.049C665.944 0 665.049 0.895431 665.049 2V107.295Z" fill="#171655"/>
<path d="M665.049 158.591C665.049 160.637 667.758 161.363 668.781 159.591L722.781 66.0606C723.551 64.7272 722.589 63.0605 721.049 63.0605H667.049C665.944 63.0605 665.049 63.956 665.049 65.0605V158.591Z" fill="#171655"/>
<path d="M665.049 209.874C665.049 211.92 667.758 212.646 668.781 210.874L715.98 129.134C716.75 127.801 715.787 126.134 714.248 126.134H667.049C665.944 126.134 665.049 127.029 665.049 128.134V209.874Z" fill="#171655"/>
<path d="M665.049 261.168C665.049 263.214 667.758 263.94 668.781 262.168L709.179 192.194C709.949 190.861 708.986 189.194 707.447 189.194H667.049C665.944 189.194 665.049 190.09 665.049 191.194V261.168Z" fill="#171655"/>
<path d="M665.049 312.463C665.049 314.51 667.758 315.236 668.781 313.464L702.391 255.254C703.16 253.921 702.198 252.254 700.659 252.254H667.049C665.944 252.254 665.049 253.15 665.049 254.254V312.463Z" fill="#171655"/>
<path d="M665.049 363.759C665.049 365.805 667.758 366.531 668.781 364.759L695.589 318.328C696.359 316.995 695.397 315.328 693.857 315.328H667.049C665.944 315.328 665.049 316.224 665.049 317.328V363.759Z" fill="#171655"/>
<path d="M665.049 415.052C665.049 417.098 667.758 417.824 668.781 416.052L688.789 381.388C689.559 380.055 688.596 378.388 687.057 378.388H667.049C665.944 378.388 665.049 379.284 665.049 380.388V415.052Z" fill="#171655"/>
<path d="M665.049 466.338C665.049 468.384 667.757 469.11 668.781 467.338L682 444.449C682.77 443.116 681.808 441.449 680.268 441.449H667.049C665.944 441.449 665.049 442.344 665.049 443.449V466.338Z" fill="#171655"/>
<path d="M665.049 517.633C665.049 519.679 667.757 520.405 668.781 518.634L675.198 507.522C675.968 506.189 675.006 504.522 673.466 504.522H667.049C665.944 504.522 665.049 505.417 665.049 506.522V517.633Z" fill="#171655"/>
<path d="M665.049 569.443C665.049 571.346 667.569 572.021 668.521 570.372C669.236 569.132 668.341 567.583 666.909 567.583C665.882 567.583 665.049 568.415 665.049 569.443Z" fill="#171655"/>
<path d="M698.301 107.295C698.301 109.341 701.01 110.067 702.033 108.295L762.822 2.99996C763.592 1.66663 762.629 0 761.09 0H700.301C699.197 0 698.301 0.895431 698.301 2V107.295Z" fill="#171655"/>
<path d="M698.301 158.591C698.301 160.637 701.01 161.363 702.033 159.591L756.034 66.0606C756.803 64.7272 755.841 63.0605 754.302 63.0605H700.301C699.197 63.0605 698.301 63.956 698.301 65.0605V158.591Z" fill="#171655"/>
<path d="M698.301 209.874C698.301 211.92 701.01 212.646 702.033 210.874L749.232 129.134C750.002 127.801 749.04 126.134 747.5 126.134H700.301C699.197 126.134 698.301 127.029 698.301 128.134V209.874Z" fill="#171655"/>
<path d="M698.301 261.168C698.301 263.214 701.01 263.94 702.033 262.168L742.431 192.194C743.201 190.861 742.239 189.194 740.699 189.194H700.301C699.197 189.194 698.301 190.09 698.301 191.194V261.168Z" fill="#171655"/>
<path d="M698.301 312.463C698.301 314.51 701.01 315.236 702.033 313.464L735.643 255.254C736.413 253.921 735.451 252.254 733.911 252.254H700.301C699.197 252.254 698.301 253.15 698.301 254.254V312.463Z" fill="#171655"/>
<path d="M698.301 363.759C698.301 365.805 701.01 366.531 702.033 364.759L728.842 318.328C729.612 316.995 728.65 315.328 727.11 315.328H700.301C699.197 315.328 698.301 316.224 698.301 317.328V363.759Z" fill="#171655"/>
<path d="M698.301 415.052C698.301 417.098 701.01 417.824 702.033 416.052L722.041 381.388C722.811 380.055 721.849 378.388 720.309 378.388H700.301C699.197 378.388 698.301 379.284 698.301 380.388V415.052Z" fill="#171655"/>
<path d="M698.301 466.338C698.301 468.384 701.01 469.11 702.033 467.338L715.252 444.449C716.022 443.116 715.06 441.449 713.52 441.449H700.301C699.197 441.449 698.301 442.344 698.301 443.449V466.338Z" fill="#171655"/>
<path d="M698.301 517.633C698.301 519.679 701.01 520.405 702.033 518.634L708.451 507.522C709.221 506.189 708.259 504.522 706.719 504.522H700.301C699.197 504.522 698.301 505.417 698.301 506.522V517.633Z" fill="#171655"/>
<path d="M698.301 569.443C698.301 571.346 700.822 572.021 701.773 570.372C702.488 569.132 701.593 567.583 700.162 567.583C699.134 567.583 698.301 568.415 698.301 569.443Z" fill="#171655"/>
<path d="M731.554 107.295C731.554 109.341 734.263 110.067 735.286 108.295L796.074 2.99996C796.844 1.66663 795.882 0 794.342 0H733.554C732.449 0 731.554 0.895431 731.554 2V107.295Z" fill="#171655"/>
<path d="M731.554 158.591C731.554 160.637 734.263 161.363 735.286 159.591L789.286 66.0606C790.056 64.7272 789.094 63.0605 787.554 63.0605H733.554C732.449 63.0605 731.554 63.956 731.554 65.0605V158.591Z" fill="#171655"/>
<path d="M731.554 209.874C731.554 211.92 734.263 212.646 735.286 210.874L782.485 129.134C783.254 127.801 782.292 126.134 780.753 126.134H733.554C732.449 126.134 731.554 127.029 731.554 128.134V209.874Z" fill="#171655"/>
<path d="M731.554 261.168C731.554 263.214 734.263 263.94 735.286 262.168L775.684 192.194C776.454 190.861 775.491 189.194 773.952 189.194H733.554C732.449 189.194 731.554 190.09 731.554 191.194V261.168Z" fill="#171655"/>
<path d="M731.554 312.463C731.554 314.51 734.263 315.236 735.286 313.464L768.895 255.254C769.665 253.921 768.703 252.254 767.163 252.254H733.554C732.449 252.254 731.554 253.15 731.554 254.254V312.463Z" fill="#171655"/>
<path d="M731.554 363.759C731.554 365.805 734.263 366.531 735.286 364.759L762.094 318.328C762.864 316.995 761.902 315.328 760.362 315.328H733.554C732.449 315.328 731.554 316.224 731.554 317.328V363.759Z" fill="#171655"/>
<path d="M731.554 415.052C731.554 417.098 734.263 417.824 735.286 416.052L755.294 381.388C756.064 380.055 755.101 378.388 753.562 378.388H733.554C732.449 378.388 731.554 379.284 731.554 380.388V415.052Z" fill="#171655"/>
<path d="M731.554 466.338C731.554 468.384 734.262 469.11 735.286 467.338L748.505 444.449C749.275 443.116 748.312 441.449 746.773 441.449H733.554C732.449 441.449 731.554 442.344 731.554 443.449V466.338Z" fill="#171655"/>
<path d="M731.554 517.633C731.554 519.679 734.262 520.405 735.286 518.634L741.703 507.522C742.473 506.189 741.511 504.522 739.971 504.522H733.554C732.449 504.522 731.554 505.417 731.554 506.522V517.633Z" fill="#171655"/>
<path d="M731.554 569.443C731.554 571.346 734.074 572.021 735.025 570.372C735.741 569.132 734.846 567.583 733.414 567.583C732.387 567.583 731.554 568.415 731.554 569.443Z" fill="#171655"/>
<path d="M764.806 107.295C764.806 109.341 767.515 110.067 768.538 108.295L829.327 2.99996C830.096 1.66663 829.134 0 827.595 0H766.806C765.702 0 764.806 0.895431 764.806 2V107.295Z" fill="#171655"/>
<path d="M764.806 158.591C764.806 160.637 767.515 161.363 768.538 159.591L822.538 66.0606C823.308 64.7272 822.346 63.0605 820.806 63.0605H766.806C765.702 63.0605 764.806 63.956 764.806 65.0605V158.591Z" fill="#171655"/>
<path d="M764.806 209.874C764.806 211.92 767.515 212.646 768.538 210.874L815.737 129.134C816.507 127.801 815.545 126.134 814.005 126.134H766.806C765.702 126.134 764.806 127.029 764.806 128.134V209.874Z" fill="#171655"/>
<path d="M764.806 261.168C764.806 263.214 767.515 263.94 768.538 262.168L808.936 192.194C809.706 190.861 808.744 189.194 807.204 189.194H766.806C765.702 189.194 764.806 190.09 764.806 191.194V261.168Z" fill="#171655"/>
<path d="M764.806 312.463C764.806 314.51 767.515 315.236 768.538 313.464L802.148 255.254C802.918 253.921 801.956 252.254 800.416 252.254H766.806C765.702 252.254 764.806 253.15 764.806 254.254V312.463Z" fill="#171655"/>
<path d="M764.806 363.759C764.806 365.805 767.515 366.531 768.538 364.759L795.347 318.328C796.117 316.995 795.154 315.328 793.615 315.328H766.806C765.702 315.328 764.806 316.224 764.806 317.328V363.759Z" fill="#171655"/>
<path d="M764.806 415.052C764.806 417.098 767.515 417.824 768.538 416.052L788.546 381.388C789.316 380.055 788.354 378.388 786.814 378.388H766.806C765.702 378.388 764.806 379.284 764.806 380.388V415.052Z" fill="#171655"/>
<path d="M764.806 466.338C764.806 468.384 767.515 469.11 768.538 467.338L781.757 444.449C782.527 443.116 781.565 441.449 780.025 441.449H766.806C765.702 441.449 764.806 442.344 764.806 443.449V466.338Z" fill="#171655"/>
<path d="M764.806 517.633C764.806 519.679 767.515 520.405 768.538 518.634L774.956 507.522C775.726 506.189 774.764 504.522 773.224 504.522H766.806C765.702 504.522 764.806 505.417 764.806 506.522V517.633Z" fill="#171655"/>
<path d="M764.806 569.443C764.806 571.346 767.327 572.021 768.278 570.372C768.993 569.132 768.098 567.583 766.666 567.583C765.639 567.583 764.806 568.415 764.806 569.443Z" fill="#171655"/>
<path d="M798.059 107.295C798.059 109.341 800.768 110.067 801.791 108.295L862.579 2.99996C863.349 1.66663 862.387 0 860.847 0H800.059C798.954 0 798.059 0.895431 798.059 2V107.295Z" fill="#171655"/>
<path d="M798.059 158.591C798.059 160.637 800.768 161.363 801.791 159.591L855.791 66.0606C856.561 64.7272 855.598 63.0605 854.059 63.0605H800.059C798.954 63.0605 798.059 63.956 798.059 65.0605V158.591Z" fill="#171655"/>
<path d="M798.059 209.874C798.059 211.92 800.767 212.646 801.791 210.874L848.989 129.134C849.759 127.801 848.797 126.134 847.257 126.134H800.059C798.954 126.134 798.059 127.029 798.059 128.134V209.874Z" fill="#171655"/>
<path d="M798.059 261.168C798.059 263.214 800.768 263.94 801.791 262.168L842.189 192.194C842.958 190.861 841.996 189.194 840.457 189.194H800.059C798.954 189.194 798.059 190.09 798.059 191.194V261.168Z" fill="#171655"/>
<path d="M798.059 312.463C798.059 314.51 800.767 315.236 801.791 313.464L835.4 255.254C836.17 253.921 835.208 252.254 833.668 252.254H800.059C798.954 252.254 798.059 253.15 798.059 254.254V312.463Z" fill="#171655"/>
<path d="M798.059 363.759C798.059 365.805 800.767 366.531 801.791 364.759L828.599 318.328C829.369 316.995 828.407 315.328 826.867 315.328H800.059C798.954 315.328 798.059 316.224 798.059 317.328V363.759Z" fill="#171655"/>
<path d="M798.059 415.052C798.059 417.098 800.768 417.824 801.791 416.052L821.799 381.388C822.568 380.055 821.606 378.388 820.067 378.388H800.059C798.954 378.388 798.059 379.284 798.059 380.388V415.052Z" fill="#171655"/>
<path d="M798.059 466.338C798.059 468.384 800.767 469.11 801.791 467.338L815.009 444.449C815.779 443.116 814.817 441.449 813.278 441.449H800.059C798.954 441.449 798.059 442.344 798.059 443.449V466.338Z" fill="#171655"/>
<path d="M798.059 517.633C798.059 519.679 800.767 520.405 801.79 518.634L808.208 507.522C808.978 506.189 808.016 504.522 806.476 504.522H800.059C798.954 504.522 798.059 505.417 798.059 506.522V517.633Z" fill="#171655"/>
<path d="M798.059 569.443C798.059 571.346 800.579 572.021 801.53 570.372C802.246 569.132 801.351 567.583 799.919 567.583C798.891 567.583 798.059 568.415 798.059 569.443Z" fill="#171655"/>
<path d="M831.311 107.295C831.311 109.341 834.02 110.067 835.043 108.295L895.832 2.99996C896.601 1.66663 895.639 0 894.1 0H833.311C832.206 0 831.311 0.895431 831.311 2V107.295Z" fill="#171655"/>
<path d="M831.311 158.591C831.311 160.637 834.02 161.363 835.043 159.591L889.043 66.0606C889.813 64.7272 888.851 63.0605 887.311 63.0605H833.311C832.206 63.0605 831.311 63.956 831.311 65.0605V158.591Z" fill="#171655"/>
<path d="M831.311 209.874C831.311 211.92 834.02 212.646 835.043 210.874L882.242 129.134C883.012 127.801 882.05 126.134 880.51 126.134H833.311C832.206 126.134 831.311 127.029 831.311 128.134V209.874Z" fill="#171655"/>
<path d="M831.311 261.168C831.311 263.214 834.02 263.94 835.043 262.168L875.441 192.194C876.211 190.861 875.249 189.194 873.709 189.194H833.311C832.206 189.194 831.311 190.09 831.311 191.194V261.168Z" fill="#171655"/>
<path d="M831.311 312.463C831.311 314.51 834.02 315.236 835.043 313.464L868.653 255.254C869.423 253.921 868.46 252.254 866.921 252.254H833.311C832.206 252.254 831.311 253.15 831.311 254.254V312.463Z" fill="#171655"/>
<path d="M831.311 363.759C831.311 365.805 834.02 366.531 835.043 364.759L861.852 318.328C862.622 316.995 861.659 315.328 860.12 315.328H833.311C832.206 315.328 831.311 316.224 831.311 317.328V363.759Z" fill="#171655"/>
<path d="M831.311 415.052C831.311 417.098 834.02 417.824 835.043 416.052L855.051 381.388C855.821 380.055 854.859 378.388 853.319 378.388H833.311C832.206 378.388 831.311 379.284 831.311 380.388V415.052Z" fill="#171655"/>
<path d="M831.311 466.338C831.311 468.384 834.02 469.11 835.043 467.338L848.262 444.449C849.032 443.116 848.07 441.449 846.53 441.449H833.311C832.206 441.449 831.311 442.344 831.311 443.449V466.338Z" fill="#171655"/>
<path d="M831.311 517.633C831.311 519.679 834.02 520.405 835.043 518.634L841.461 507.522C842.231 506.189 841.268 504.522 839.729 504.522H833.311C832.206 504.522 831.311 505.417 831.311 506.522V517.633Z" fill="#171655"/>
<path d="M831.311 569.443C831.311 571.346 833.831 572.021 834.783 570.372C835.498 569.132 834.603 567.583 833.171 567.583C832.144 567.583 831.311 568.415 831.311 569.443Z" fill="#171655"/>
<path d="M864.563 107.295C864.563 109.341 867.272 110.067 868.296 108.295L929.084 2.99996C929.854 1.66663 928.892 0 927.352 0H866.563C865.459 0 864.563 0.895431 864.563 2V107.295Z" fill="#171655"/>
<path d="M864.563 158.591C864.563 160.637 867.272 161.363 868.296 159.591L922.296 66.0606C923.066 64.7272 922.103 63.0605 920.564 63.0605H866.563C865.459 63.0605 864.563 63.956 864.563 65.0605V158.591Z" fill="#171655"/>
<path d="M864.563 209.874C864.563 211.92 867.272 212.646 868.295 210.874L915.494 129.134C916.264 127.801 915.302 126.134 913.762 126.134H866.563C865.459 126.134 864.563 127.029 864.563 128.134V209.874Z" fill="#171655"/>
<path d="M864.563 261.168C864.563 263.214 867.272 263.94 868.296 262.168L908.694 192.194C909.463 190.861 908.501 189.194 906.962 189.194H866.563C865.459 189.194 864.563 190.09 864.563 191.194V261.168Z" fill="#171655"/>
<path d="M864.563 312.463C864.563 314.51 867.272 315.236 868.295 313.464L901.905 255.254C902.675 253.921 901.713 252.254 900.173 252.254H866.563C865.459 252.254 864.563 253.15 864.563 254.254V312.463Z" fill="#171655"/>
<path d="M864.563 363.759C864.563 365.805 867.272 366.531 868.295 364.759L895.104 318.328C895.874 316.995 894.912 315.328 893.372 315.328H866.563C865.459 315.328 864.563 316.224 864.563 317.328V363.759Z" fill="#171655"/>
<path d="M864.563 415.052C864.563 417.098 867.273 417.824 868.296 416.052L888.304 381.388C889.073 380.055 888.111 378.388 886.572 378.388H866.563C865.459 378.388 864.563 379.284 864.563 380.388V415.052Z" fill="#171655"/>
<path d="M864.563 466.338C864.563 468.384 867.272 469.11 868.295 467.338L881.514 444.449C882.284 443.116 881.322 441.449 879.782 441.449H866.563C865.459 441.449 864.563 442.344 864.563 443.449V466.338Z" fill="#171655"/>
<path d="M864.563 517.633C864.563 519.679 867.272 520.405 868.295 518.634L874.713 507.522C875.483 506.189 874.521 504.522 872.981 504.522H866.563C865.459 504.522 864.563 505.417 864.563 506.522V517.633Z" fill="#171655"/>
<path d="M864.563 569.443C864.563 571.346 867.084 572.021 868.035 570.372C868.751 569.132 867.856 567.583 866.424 567.583C865.396 567.583 864.563 568.415 864.563 569.443Z" fill="#171655"/>
<path d="M897.816 107.295C897.816 109.341 900.525 110.067 901.548 108.295L962.336 2.99996C963.106 1.66663 962.144 0 960.604 0H899.816C898.711 0 897.816 0.895431 897.816 2V107.295Z" fill="#171655"/>
<path d="M897.816 158.591C897.816 160.637 900.525 161.363 901.548 159.591L955.548 66.0606C956.318 64.7272 955.356 63.0605 953.816 63.0605H899.816C898.711 63.0605 897.816 63.956 897.816 65.0605V158.591Z" fill="#171655"/>
<path d="M897.816 209.874C897.816 211.92 900.525 212.646 901.548 210.874L948.747 129.134C949.517 127.801 948.554 126.134 947.015 126.134H899.816C898.711 126.134 897.816 127.029 897.816 128.134V209.874Z" fill="#171655"/>
<path d="M897.816 261.168C897.816 263.214 900.525 263.94 901.548 262.168L941.946 192.194C942.716 190.861 941.754 189.194 940.214 189.194H899.816C898.711 189.194 897.816 190.09 897.816 191.194V261.168Z" fill="#171655"/>
<path d="M897.816 312.463C897.816 314.51 900.525 315.236 901.548 313.464L935.158 255.254C935.928 253.921 934.965 252.254 933.426 252.254H899.816C898.711 252.254 897.816 253.15 897.816 254.254V312.463Z" fill="#171655"/>
<path d="M897.816 363.759C897.816 365.805 900.525 366.531 901.548 364.759L928.357 318.328C929.126 316.995 928.164 315.328 926.625 315.328H899.816C898.711 315.328 897.816 316.224 897.816 317.328V363.759Z" fill="#171655"/>
<path d="M897.816 415.052C897.816 417.098 900.525 417.824 901.548 416.052L921.556 381.388C922.326 380.055 921.363 378.388 919.824 378.388H899.816C898.711 378.388 897.816 379.284 897.816 380.388V415.052Z" fill="#171655"/>
<path d="M897.816 466.338C897.816 468.384 900.525 469.11 901.548 467.338L914.767 444.449C915.537 443.116 914.575 441.449 913.035 441.449H899.816C898.711 441.449 897.816 442.344 897.816 443.449V466.338Z" fill="#171655"/>
<path d="M897.816 517.633C897.816 519.679 900.524 520.405 901.548 518.634L907.965 507.522C908.736 506.189 907.773 504.522 906.234 504.522H899.816C898.711 504.522 897.816 505.417 897.816 506.522V517.633Z" fill="#171655"/>
<path d="M897.816 569.443C897.816 571.346 900.336 572.021 901.288 570.372C902.003 569.132 901.108 567.583 899.676 567.583C898.649 567.583 897.816 568.415 897.816 569.443Z" fill="#171655"/>
<path d="M931.068 107.295C931.068 109.341 933.777 110.067 934.8 108.295L995.589 2.99996C996.359 1.66663 995.396 0 993.857 0H933.068C931.964 0 931.068 0.895431 931.068 2V107.295Z" fill="#171655"/>
<path d="M931.068 158.591C931.068 160.637 933.777 161.363 934.8 159.591L988.801 66.0606C989.57 64.7272 988.608 63.0605 987.069 63.0605H933.068C931.964 63.0605 931.068 63.956 931.068 65.0605V158.591Z" fill="#171655"/>
<path d="M931.068 209.874C931.068 211.92 933.777 212.646 934.8 210.874L981.999 129.134C982.769 127.801 981.807 126.134 980.267 126.134H933.068C931.964 126.134 931.068 127.029 931.068 128.134V209.874Z" fill="#171655"/>
<path d="M931.068 261.168C931.068 263.214 933.777 263.94 934.8 262.168L975.198 192.194C975.968 190.861 975.006 189.194 973.466 189.194H933.068C931.964 189.194 931.068 190.09 931.068 191.194V261.168Z" fill="#171655"/>
<path d="M931.068 312.463C931.068 314.51 933.777 315.236 934.8 313.464L968.41 255.254C969.18 253.921 968.218 252.254 966.678 252.254H933.068C931.964 252.254 931.068 253.15 931.068 254.254V312.463Z" fill="#171655"/>
<path d="M931.068 363.759C931.068 365.805 933.777 366.531 934.8 364.759L961.609 318.328C962.379 316.995 961.417 315.328 959.877 315.328H933.068C931.964 315.328 931.068 316.224 931.068 317.328V363.759Z" fill="#171655"/>
<path d="M931.068 415.052C931.068 417.098 933.778 417.824 934.801 416.052L954.809 381.388C955.578 380.055 954.616 378.388 953.076 378.388H933.068C931.964 378.388 931.068 379.284 931.068 380.388V415.052Z" fill="#171655"/>
<path d="M931.068 466.338C931.068 468.384 933.777 469.11 934.8 467.338L948.019 444.449C948.789 443.116 947.827 441.449 946.287 441.449H933.068C931.964 441.449 931.068 442.344 931.068 443.449V466.338Z" fill="#171655"/>
<path d="M931.068 517.633C931.068 519.679 933.777 520.405 934.8 518.634L941.218 507.522C941.988 506.189 941.026 504.522 939.486 504.522H933.068C931.964 504.522 931.068 505.417 931.068 506.522V517.633Z" fill="#171655"/>
<path d="M931.068 569.443C931.068 571.346 933.589 572.021 934.54 570.372C935.256 569.132 934.36 567.583 932.929 567.583C931.901 567.583 931.068 568.415 931.068 569.443Z" fill="#171655"/>
<path d="M964.321 107.295C964.321 109.341 967.03 110.067 968.053 108.295L1028.84 2.99996C1029.61 1.66663 1028.65 0 1027.11 0H966.321C965.216 0 964.321 0.895431 964.321 2V107.295Z" fill="#171655"/>
<path d="M964.321 158.591C964.321 160.637 967.03 161.363 968.053 159.591L1022.05 66.0606C1022.82 64.7272 1021.86 63.0605 1020.32 63.0605H966.321C965.216 63.0605 964.321 63.956 964.321 65.0605V158.591Z" fill="#171655"/>
<path d="M964.321 209.874C964.321 211.92 967.03 212.646 968.053 210.874L1015.25 129.134C1016.02 127.801 1015.06 126.134 1013.52 126.134H966.321C965.216 126.134 964.321 127.029 964.321 128.134V209.874Z" fill="#171655"/>
<path d="M964.321 261.168C964.321 263.214 967.03 263.94 968.053 262.168L1008.45 192.194C1009.22 190.861 1008.26 189.194 1006.72 189.194H966.321C965.216 189.194 964.321 190.09 964.321 191.194V261.168Z" fill="#171655"/>
<path d="M964.321 312.463C964.321 314.51 967.03 315.236 968.053 313.464L1001.66 255.254C1002.43 253.921 1001.47 252.254 999.931 252.254H966.321C965.216 252.254 964.321 253.15 964.321 254.254V312.463Z" fill="#171655"/>
<path d="M964.321 363.759C964.321 365.805 967.03 366.531 968.053 364.759L994.861 318.328C995.631 316.995 994.669 315.328 993.129 315.328H966.321C965.216 315.328 964.321 316.224 964.321 317.328V363.759Z" fill="#171655"/>
<path d="M964.321 415.052C964.321 417.098 967.03 417.824 968.053 416.052L988.061 381.388C988.831 380.055 987.868 378.388 986.329 378.388H966.321C965.216 378.388 964.321 379.284 964.321 380.388V415.052Z" fill="#171655"/>
<path d="M964.321 466.338C964.321 468.384 967.029 469.11 968.053 467.338L981.272 444.449C982.042 443.116 981.079 441.449 979.54 441.449H966.321C965.216 441.449 964.321 442.344 964.321 443.449V466.338Z" fill="#171655"/>
<path d="M964.321 517.633C964.321 519.679 967.029 520.405 968.053 518.634L974.47 507.522C975.24 506.189 974.278 504.522 972.738 504.522H966.321C965.216 504.522 964.321 505.417 964.321 506.522V517.633Z" fill="#171655"/>
<path d="M964.321 569.443C964.321 571.346 966.841 572.021 967.793 570.372C968.508 569.132 967.613 567.583 966.181 567.583C965.154 567.583 964.321 568.415 964.321 569.443Z" fill="#171655"/>
<path d="M997.573 107.295C997.573 109.341 1000.28 110.067 1001.31 108.295L1062.09 2.99996C1062.86 1.66663 1061.9 0 1060.36 0H999.573C998.469 0 997.573 0.895431 997.573 2V107.295Z" fill="#171655"/>
<path d="M997.573 158.591C997.573 160.637 1000.28 161.363 1001.31 159.591L1055.31 66.0606C1056.08 64.7272 1055.11 63.0605 1053.57 63.0605H999.573C998.469 63.0605 997.573 63.956 997.573 65.0605V158.591Z" fill="#171655"/>
<path d="M997.573 209.874C997.573 211.92 1000.28 212.646 1001.31 210.874L1048.5 129.134C1049.27 127.801 1048.31 126.134 1046.77 126.134H999.573C998.469 126.134 997.573 127.029 997.573 128.134V209.874Z" fill="#171655"/>
<path d="M997.573 261.168C997.573 263.214 1000.28 263.94 1001.31 262.168L1041.7 192.194C1042.47 190.861 1041.51 189.194 1039.97 189.194H999.573C998.469 189.194 997.573 190.09 997.573 191.194V261.168Z" fill="#171655"/>
<path d="M997.573 312.463C997.573 314.51 1000.28 315.236 1001.31 313.464L1034.91 255.254C1035.68 253.921 1034.72 252.254 1033.18 252.254H999.573C998.469 252.254 997.573 253.15 997.573 254.254V312.463Z" fill="#171655"/>
<path d="M997.573 363.759C997.573 365.805 1000.28 366.531 1001.31 364.759L1028.11 318.328C1028.88 316.995 1027.92 315.328 1026.38 315.328H999.573C998.469 315.328 997.573 316.224 997.573 317.328V363.759Z" fill="#171655"/>
<path d="M997.573 415.052C997.573 417.098 1000.28 417.824 1001.31 416.052L1021.31 381.388C1022.08 380.055 1021.12 378.388 1019.58 378.388H999.573C998.469 378.388 997.573 379.284 997.573 380.388V415.052Z" fill="#171655"/>
<path d="M997.573 466.338C997.573 468.384 1000.28 469.11 1001.31 467.338L1014.52 444.449C1015.29 443.116 1014.33 441.449 1012.79 441.449H999.573C998.469 441.449 997.573 442.344 997.573 443.449V466.338Z" fill="#171655"/>
<path d="M997.573 517.633C997.573 519.679 1000.28 520.405 1001.31 518.634L1007.72 507.522C1008.49 506.189 1007.53 504.522 1005.99 504.522H999.573C998.469 504.522 997.573 505.417 997.573 506.522V517.633Z" fill="#171655"/>
<path d="M997.573 569.443C997.573 571.346 1000.09 572.021 1001.04 570.372C1001.76 569.132 1000.87 567.583 999.434 567.583C998.406 567.583 997.573 568.415 997.573 569.443Z" fill="#171655"/>
<path d="M1030.83 107.295C1030.83 109.341 1033.53 110.067 1034.56 108.295L1095.35 2.99996C1096.12 1.66663 1095.15 0 1093.61 0H1032.83C1031.72 0 1030.83 0.895431 1030.83 2V107.295Z" fill="#171655"/>
<path d="M1030.83 158.591C1030.83 160.637 1033.53 161.363 1034.56 159.591L1088.56 66.0606C1089.33 64.7272 1088.37 63.0605 1086.83 63.0605H1032.83C1031.72 63.0605 1030.83 63.956 1030.83 65.0605V158.591Z" fill="#171655"/>
<path d="M1030.83 209.874C1030.83 211.92 1033.53 212.646 1034.56 210.874L1081.76 129.134C1082.53 127.801 1081.56 126.134 1080.02 126.134H1032.83C1031.72 126.134 1030.83 127.029 1030.83 128.134V209.874Z" fill="#171655"/>
<path d="M1030.83 261.168C1030.83 263.214 1033.53 263.94 1034.56 262.168L1074.96 192.194C1075.73 190.861 1074.76 189.194 1073.22 189.194H1032.83C1031.72 189.194 1030.83 190.09 1030.83 191.194V261.168Z" fill="#171655"/>
<path d="M1030.83 312.463C1030.83 314.51 1033.53 315.236 1034.56 313.464L1068.17 255.254C1068.94 253.921 1067.98 252.254 1066.44 252.254H1032.83C1031.72 252.254 1030.83 253.15 1030.83 254.254V312.463Z" fill="#171655"/>
<path d="M1030.83 363.759C1030.83 365.805 1033.53 366.531 1034.56 364.759L1061.37 318.328C1062.14 316.995 1061.17 315.328 1059.63 315.328H1032.83C1031.72 315.328 1030.83 316.224 1030.83 317.328V363.759Z" fill="#171655"/>
<path d="M1030.83 415.052C1030.83 417.098 1033.53 417.824 1034.56 416.052L1054.57 381.388C1055.34 380.055 1054.37 378.388 1052.83 378.388H1032.83C1031.72 378.388 1030.83 379.284 1030.83 380.388V415.052Z" fill="#171655"/>
<path d="M1030.83 466.338C1030.83 468.384 1033.53 469.11 1034.56 467.338L1047.78 444.449C1048.55 443.116 1047.58 441.449 1046.04 441.449H1032.83C1031.72 441.449 1030.83 442.344 1030.83 443.449V466.338Z" fill="#171655"/>
<path d="M1030.83 517.633C1030.83 519.679 1033.53 520.405 1034.56 518.634L1040.98 507.522C1041.75 506.189 1040.78 504.522 1039.24 504.522H1032.83C1031.72 504.522 1030.83 505.417 1030.83 506.522V517.633Z" fill="#171655"/>
<path d="M1030.83 569.443C1030.83 571.346 1033.35 572.021 1034.3 570.372C1035.01 569.132 1034.12 567.583 1032.69 567.583C1031.66 567.583 1030.83 568.415 1030.83 569.443Z" fill="#171655"/>
<path d="M1064.08 107.295C1064.08 109.341 1066.79 110.067 1067.81 108.295L1128.6 2.99996C1129.37 1.66663 1128.41 0 1126.87 0H1066.08C1064.97 0 1064.08 0.895431 1064.08 2V107.295Z" fill="#171655"/>
<path d="M1064.08 158.591C1064.08 160.637 1066.79 161.363 1067.81 159.591L1121.81 66.0606C1122.58 64.7272 1121.62 63.0605 1120.08 63.0605H1066.08C1064.97 63.0605 1064.08 63.956 1064.08 65.0605V158.591Z" fill="#171655"/>
<path d="M1064.08 209.874C1064.08 211.92 1066.79 212.646 1067.81 210.874L1115.01 129.134C1115.78 127.801 1114.82 126.134 1113.28 126.134H1066.08C1064.97 126.134 1064.08 127.029 1064.08 128.134V209.874Z" fill="#171655"/>
<path d="M1064.08 261.168C1064.08 263.214 1066.79 263.94 1067.81 262.168L1108.21 192.194C1108.98 190.861 1108.02 189.194 1106.48 189.194H1066.08C1064.97 189.194 1064.08 190.09 1064.08 191.194V261.168Z" fill="#171655"/>
<path d="M1064.08 312.463C1064.08 314.51 1066.79 315.236 1067.81 313.464L1101.42 255.254C1102.19 253.921 1101.23 252.254 1099.69 252.254H1066.08C1064.97 252.254 1064.08 253.15 1064.08 254.254V312.463Z" fill="#171655"/>
<path d="M1064.08 363.759C1064.08 365.805 1066.79 366.531 1067.81 364.759L1094.62 318.328C1095.39 316.995 1094.43 315.328 1092.89 315.328H1066.08C1064.97 315.328 1064.08 316.224 1064.08 317.328V363.759Z" fill="#171655"/>
<path d="M1064.08 415.052C1064.08 417.098 1066.79 417.824 1067.81 416.052L1087.82 381.388C1088.59 380.055 1087.63 378.388 1086.09 378.388H1066.08C1064.97 378.388 1064.08 379.284 1064.08 380.388V415.052Z" fill="#171655"/>
<path d="M1064.08 466.338C1064.08 468.384 1066.79 469.11 1067.81 467.338L1081.03 444.449C1081.8 443.116 1080.84 441.449 1079.3 441.449H1066.08C1064.97 441.449 1064.08 442.344 1064.08 443.449V466.338Z" fill="#171655"/>
<path d="M1064.08 517.633C1064.08 519.679 1066.79 520.405 1067.81 518.634L1074.23 507.522C1075 506.189 1074.04 504.522 1072.5 504.522H1066.08C1064.97 504.522 1064.08 505.417 1064.08 506.522V517.633Z" fill="#171655"/>
<path d="M1064.08 569.443C1064.08 571.346 1066.6 572.021 1067.55 570.372C1068.27 569.132 1067.37 567.583 1065.94 567.583C1064.91 567.583 1064.08 568.415 1064.08 569.443Z" fill="#171655"/>
<path d="M1097.33 107.295C1097.33 109.341 1100.04 110.067 1101.06 108.295L1161.85 2.99996C1162.62 1.66663 1161.66 0 1160.12 0H1099.33C1098.23 0 1097.33 0.895431 1097.33 2V107.295Z" fill="#171655"/>
<path d="M1097.33 158.591C1097.33 160.637 1100.04 161.363 1101.06 159.591L1155.06 66.0606C1155.83 64.7272 1154.87 63.0605 1153.33 63.0605H1099.33C1098.23 63.0605 1097.33 63.956 1097.33 65.0605V158.591Z" fill="#171655"/>
<path d="M1097.33 209.874C1097.33 211.92 1100.04 212.646 1101.06 210.874L1148.26 129.134C1149.03 127.801 1148.07 126.134 1146.53 126.134H1099.33C1098.23 126.134 1097.33 127.029 1097.33 128.134V209.874Z" fill="#171655"/>
<path d="M1097.33 261.168C1097.33 263.214 1100.04 263.94 1101.06 262.168L1141.46 192.194C1142.23 190.861 1141.27 189.194 1139.73 189.194H1099.33C1098.23 189.194 1097.33 190.09 1097.33 191.194V261.168Z" fill="#171655"/>
<path d="M1097.33 312.463C1097.33 314.51 1100.04 315.236 1101.06 313.464L1134.67 255.254C1135.44 253.921 1134.48 252.254 1132.94 252.254H1099.33C1098.23 252.254 1097.33 253.15 1097.33 254.254V312.463Z" fill="#171655"/>
<path d="M1097.33 363.759C1097.33 365.805 1100.04 366.531 1101.06 364.759L1127.87 318.328C1128.64 316.995 1127.68 315.328 1126.14 315.328H1099.33C1098.23 315.328 1097.33 316.224 1097.33 317.328V363.759Z" fill="#171655"/>
<path d="M1097.33 415.052C1097.33 417.098 1100.04 417.824 1101.06 416.052L1121.07 381.388C1121.84 380.055 1120.88 378.388 1119.34 378.388H1099.33C1098.23 378.388 1097.33 379.284 1097.33 380.388V415.052Z" fill="#171655"/>
<path d="M1097.33 466.338C1097.33 468.384 1100.04 469.11 1101.06 467.338L1114.28 444.449C1115.05 443.116 1114.09 441.449 1112.55 441.449H1099.33C1098.23 441.449 1097.33 442.344 1097.33 443.449V466.338Z" fill="#171655"/>
<path d="M1097.33 517.633C1097.33 519.679 1100.04 520.405 1101.06 518.634L1107.48 507.522C1108.25 506.189 1107.29 504.522 1105.75 504.522H1099.33C1098.23 504.522 1097.33 505.417 1097.33 506.522V517.633Z" fill="#171655"/>
<path d="M1097.33 569.443C1097.33 571.346 1099.85 572.021 1100.8 570.372C1101.52 569.132 1100.62 567.583 1099.19 567.583C1098.16 567.583 1097.33 568.415 1097.33 569.443Z" fill="#171655"/>
<path d="M1130.58 107.295C1130.58 109.341 1133.29 110.067 1134.32 108.295L1195.1 2.99996C1195.87 1.66663 1194.91 0 1193.37 0H1132.58C1131.48 0 1130.58 0.895431 1130.58 2V107.295Z" fill="#171655"/>
<path d="M1130.58 158.591C1130.58 160.637 1133.29 161.363 1134.32 159.591L1188.32 66.0606C1189.09 64.7272 1188.12 63.0605 1186.58 63.0605H1132.58C1131.48 63.0605 1130.58 63.956 1130.58 65.0605V158.591Z" fill="#171655"/>
<path d="M1130.58 209.874C1130.58 211.92 1133.29 212.646 1134.32 210.874L1181.51 129.134C1182.28 127.801 1181.32 126.134 1179.78 126.134H1132.58C1131.48 126.134 1130.58 127.029 1130.58 128.134V209.874Z" fill="#171655"/>
<path d="M1130.58 261.168C1130.58 263.214 1133.29 263.94 1134.32 262.168L1174.71 192.194C1175.48 190.861 1174.52 189.194 1172.98 189.194H1132.58C1131.48 189.194 1130.58 190.09 1130.58 191.194V261.168Z" fill="#171655"/>
<path d="M1130.58 312.463C1130.58 314.51 1133.29 315.236 1134.32 313.464L1167.92 255.254C1168.69 253.921 1167.73 252.254 1166.19 252.254H1132.58C1131.48 252.254 1130.58 253.15 1130.58 254.254V312.463Z" fill="#171655"/>
<path d="M1130.58 363.759C1130.58 365.805 1133.29 366.531 1134.32 364.759L1161.12 318.328C1161.89 316.995 1160.93 315.328 1159.39 315.328H1132.58C1131.48 315.328 1130.58 316.224 1130.58 317.328V363.759Z" fill="#171655"/>
<path d="M1130.58 415.052C1130.58 417.098 1133.29 417.824 1134.32 416.052L1154.32 381.388C1155.09 380.055 1154.13 378.388 1152.59 378.388H1132.58C1131.48 378.388 1130.58 379.284 1130.58 380.388V415.052Z" fill="#171655"/>
<path d="M1130.58 466.338C1130.58 468.384 1133.29 469.11 1134.31 467.338L1147.53 444.449C1148.3 443.116 1147.34 441.449 1145.8 441.449H1132.58C1131.48 441.449 1130.58 442.344 1130.58 443.449V466.338Z" fill="#171655"/>
<path d="M1130.58 517.633C1130.58 519.679 1133.29 520.405 1134.31 518.634L1140.73 507.522C1141.5 506.189 1140.54 504.522 1139 504.522H1132.58C1131.48 504.522 1130.58 505.417 1130.58 506.522V517.633Z" fill="#171655"/>
<path d="M1130.58 569.443C1130.58 571.346 1133.1 572.021 1134.05 570.372C1134.77 569.132 1133.88 567.583 1132.44 567.583C1131.42 567.583 1130.58 568.415 1130.58 569.443Z" fill="#171655"/>
<path d="M1163.84 107.295C1163.84 109.341 1166.54 110.067 1167.57 108.295L1228.36 2.99996C1229.13 1.66663 1228.16 0 1226.62 0H1165.84C1164.73 0 1163.84 0.895431 1163.84 2V107.295Z" fill="#171655"/>
<path d="M1163.84 158.591C1163.84 160.637 1166.54 161.363 1167.57 159.591L1221.57 66.0606C1222.34 64.7272 1221.38 63.0605 1219.84 63.0605H1165.84C1164.73 63.0605 1163.84 63.956 1163.84 65.0605V158.591Z" fill="#171655"/>
<path d="M1163.84 209.874C1163.84 211.92 1166.54 212.646 1167.57 210.874L1214.77 129.134C1215.54 127.801 1214.57 126.134 1213.03 126.134H1165.84C1164.73 126.134 1163.84 127.029 1163.84 128.134V209.874Z" fill="#171655"/>
<path d="M1163.84 261.168C1163.84 263.214 1166.54 263.94 1167.57 262.168L1207.97 192.194C1208.74 190.861 1207.77 189.194 1206.23 189.194H1165.84C1164.73 189.194 1163.84 190.09 1163.84 191.194V261.168Z" fill="#171655"/>
<path d="M1163.84 312.463C1163.84 314.51 1166.54 315.236 1167.57 313.464L1201.18 255.254C1201.95 253.921 1200.98 252.254 1199.45 252.254H1165.84C1164.73 252.254 1163.84 253.15 1163.84 254.254V312.463Z" fill="#171655"/>
<path d="M1163.84 363.759C1163.84 365.805 1166.54 366.531 1167.57 364.759L1194.38 318.328C1195.15 316.995 1194.18 315.328 1192.64 315.328H1165.84C1164.73 315.328 1163.84 316.224 1163.84 317.328V363.759Z" fill="#171655"/>
<path d="M1163.84 415.052C1163.84 417.098 1166.54 417.824 1167.57 416.052L1187.58 381.388C1188.35 380.055 1187.38 378.388 1185.84 378.388H1165.84C1164.73 378.388 1163.84 379.284 1163.84 380.388V415.052Z" fill="#171655"/>
<path d="M1163.84 466.338C1163.84 468.384 1166.54 469.11 1167.57 467.338L1180.79 444.449C1181.56 443.116 1180.59 441.449 1179.05 441.449H1165.84C1164.73 441.449 1163.84 442.344 1163.84 443.449V466.338Z" fill="#171655"/>
<path d="M1163.84 517.633C1163.84 519.679 1166.54 520.405 1167.57 518.634L1173.98 507.522C1174.76 506.189 1173.79 504.522 1172.25 504.522H1165.84C1164.73 504.522 1163.84 505.417 1163.84 506.522V517.633Z" fill="#171655"/>
<path d="M1163.84 569.443C1163.84 571.346 1166.36 572.021 1167.31 570.372C1168.02 569.132 1167.13 567.583 1165.7 567.583C1164.67 567.583 1163.84 568.415 1163.84 569.443Z" fill="#171655"/>
<path d="M1197.09 107.295C1197.09 109.341 1199.8 110.067 1200.82 108.295L1261.61 2.99996C1262.38 1.66663 1261.42 0 1259.88 0H1199.09C1197.98 0 1197.09 0.895431 1197.09 2V107.295Z" fill="#171655"/>
<path d="M1197.09 158.591C1197.09 160.637 1199.8 161.363 1200.82 159.591L1254.82 66.0606C1255.59 64.7272 1254.63 63.0605 1253.09 63.0605H1199.09C1197.98 63.0605 1197.09 63.956 1197.09 65.0605V158.591Z" fill="#171655"/>
<path d="M1197.09 209.874C1197.09 211.92 1199.8 212.646 1200.82 210.874L1248.02 129.134C1248.79 127.801 1247.83 126.134 1246.29 126.134H1199.09C1197.98 126.134 1197.09 127.029 1197.09 128.134V209.874Z" fill="#171655"/>
<path d="M1197.09 261.168C1197.09 263.214 1199.8 263.94 1200.82 262.168L1241.22 192.194C1241.99 190.861 1241.03 189.194 1239.49 189.194H1199.09C1197.98 189.194 1197.09 190.09 1197.09 191.194V261.168Z" fill="#171655"/>
<path d="M1197.09 312.463C1197.09 314.51 1199.8 315.236 1200.82 313.464L1234.43 255.254C1235.2 253.921 1234.24 252.254 1232.7 252.254H1199.09C1197.98 252.254 1197.09 253.15 1197.09 254.254V312.463Z" fill="#171655"/>
<path d="M1197.09 363.759C1197.09 365.805 1199.8 366.531 1200.82 364.759L1227.63 318.328C1228.4 316.995 1227.44 315.328 1225.9 315.328H1199.09C1197.98 315.328 1197.09 316.224 1197.09 317.328V363.759Z" fill="#171655"/>
<path d="M1197.09 415.052C1197.09 417.098 1199.8 417.824 1200.82 416.052L1220.83 381.388C1221.6 380.055 1220.64 378.388 1219.1 378.388H1199.09C1197.98 378.388 1197.09 379.284 1197.09 380.388V415.052Z" fill="#171655"/>
<path d="M1197.09 466.338C1197.09 468.384 1199.8 469.11 1200.82 467.338L1214.04 444.449C1214.81 443.116 1213.85 441.449 1212.31 441.449H1199.09C1197.98 441.449 1197.09 442.344 1197.09 443.449V466.338Z" fill="#171655"/>
<path d="M1197.09 517.633C1197.09 519.679 1199.8 520.405 1200.82 518.634L1207.24 507.522C1208.01 506.189 1207.05 504.522 1205.51 504.522H1199.09C1197.98 504.522 1197.09 505.417 1197.09 506.522V517.633Z" fill="#171655"/>
<path d="M1197.09 569.443C1197.09 571.346 1199.61 572.021 1200.56 570.372C1201.28 569.132 1200.38 567.583 1198.95 567.583C1197.92 567.583 1197.09 568.415 1197.09 569.443Z" fill="#171655"/>
<path d="M1230.34 107.295C1230.34 109.341 1233.05 110.067 1234.07 108.295L1294.86 2.99996C1295.63 1.66663 1294.67 0 1293.13 0H1232.34C1231.24 0 1230.34 0.895431 1230.34 2V107.295Z" fill="#171655"/>
<path d="M1230.34 158.591C1230.34 160.637 1233.05 161.363 1234.07 159.591L1288.07 66.0606C1288.84 64.7272 1287.88 63.0605 1286.34 63.0605H1232.34C1231.24 63.0605 1230.34 63.956 1230.34 65.0605V158.591Z" fill="#171655"/>
<path d="M1230.34 209.874C1230.34 211.92 1233.05 212.646 1234.07 210.874L1281.27 129.134C1282.04 127.801 1281.08 126.134 1279.54 126.134H1232.34C1231.24 126.134 1230.34 127.029 1230.34 128.134V209.874Z" fill="#171655"/>
<path d="M1230.34 261.168C1230.34 263.214 1233.05 263.94 1234.07 262.168L1274.47 192.194C1275.24 190.861 1274.28 189.194 1272.74 189.194H1232.34C1231.24 189.194 1230.34 190.09 1230.34 191.194V261.168Z" fill="#171655"/>
<path d="M1230.34 312.463C1230.34 314.51 1233.05 315.236 1234.07 313.464L1267.68 255.254C1268.45 253.921 1267.49 252.254 1265.95 252.254H1232.34C1231.24 252.254 1230.34 253.15 1230.34 254.254V312.463Z" fill="#171655"/>
<path d="M1230.34 363.759C1230.34 365.805 1233.05 366.531 1234.07 364.759L1260.88 318.328C1261.65 316.995 1260.69 315.328 1259.15 315.328H1232.34C1231.24 315.328 1230.34 316.224 1230.34 317.328V363.759Z" fill="#171655"/>
<path d="M1230.34 415.052C1230.34 417.098 1233.05 417.824 1234.07 416.052L1254.08 381.388C1254.85 380.055 1253.89 378.388 1252.35 378.388H1232.34C1231.24 378.388 1230.34 379.284 1230.34 380.388V415.052Z" fill="#171655"/>
<path d="M1230.34 466.338C1230.34 468.384 1233.05 469.11 1234.07 467.338L1247.29 444.449C1248.06 443.116 1247.1 441.449 1245.56 441.449H1232.34C1231.24 441.449 1230.34 442.344 1230.34 443.449V466.338Z" fill="#171655"/>
<path d="M1230.34 517.633C1230.34 519.679 1233.05 520.405 1234.07 518.634L1240.49 507.522C1241.26 506.189 1240.3 504.522 1238.76 504.522H1232.34C1231.24 504.522 1230.34 505.417 1230.34 506.522V517.633Z" fill="#171655"/>
<path d="M1230.34 569.443C1230.34 571.346 1232.86 572.021 1233.81 570.372C1234.53 569.132 1233.63 567.583 1232.2 567.583C1231.17 567.583 1230.34 568.415 1230.34 569.443Z" fill="#171655"/>
<path d="M1263.59 107.295C1263.59 109.341 1266.3 110.067 1267.32 108.295L1328.11 2.99996C1328.88 1.66663 1327.92 0 1326.38 0H1265.59C1264.49 0 1263.59 0.895431 1263.59 2V107.295Z" fill="#171655"/>
<path d="M1263.59 158.591C1263.59 160.637 1266.3 161.363 1267.32 159.591L1321.33 66.0606C1322.09 64.7272 1321.13 63.0605 1319.59 63.0605H1265.59C1264.49 63.0605 1263.59 63.956 1263.59 65.0605V158.591Z" fill="#171655"/>
<path d="M1263.59 209.874C1263.59 211.92 1266.3 212.646 1267.32 210.874L1314.52 129.134C1315.29 127.801 1314.33 126.134 1312.79 126.134H1265.59C1264.49 126.134 1263.59 127.029 1263.59 128.134V209.874Z" fill="#171655"/>
<path d="M1263.59 261.168C1263.59 263.214 1266.3 263.94 1267.32 262.168L1307.72 192.194C1308.49 190.861 1307.53 189.194 1305.99 189.194H1265.59C1264.49 189.194 1263.59 190.09 1263.59 191.194V261.168Z" fill="#171655"/>
<path d="M1263.59 312.463C1263.59 314.51 1266.3 315.236 1267.32 313.464L1300.93 255.254C1301.7 253.921 1300.74 252.254 1299.2 252.254H1265.59C1264.49 252.254 1263.59 253.15 1263.59 254.254V312.463Z" fill="#171655"/>
<path d="M1263.59 363.759C1263.59 365.805 1266.3 366.531 1267.32 364.759L1294.13 318.328C1294.9 316.995 1293.94 315.328 1292.4 315.328H1265.59C1264.49 315.328 1263.59 316.224 1263.59 317.328V363.759Z" fill="#171655"/>
<path d="M1263.59 415.052C1263.59 417.098 1266.3 417.824 1267.32 416.052L1287.33 381.388C1288.1 380.055 1287.14 378.388 1285.6 378.388H1265.59C1264.49 378.388 1263.59 379.284 1263.59 380.388V415.052Z" fill="#171655"/>
<path d="M1263.59 466.338C1263.59 468.384 1266.3 469.11 1267.32 467.338L1280.54 444.449C1281.31 443.116 1280.35 441.449 1278.81 441.449H1265.59C1264.49 441.449 1263.59 442.344 1263.59 443.449V466.338Z" fill="#171655"/>
<path d="M1263.59 517.633C1263.59 519.679 1266.3 520.405 1267.32 518.634L1273.74 507.522C1274.51 506.189 1273.55 504.522 1272.01 504.522H1265.59C1264.49 504.522 1263.59 505.417 1263.59 506.522V517.633Z" fill="#171655"/>
<path d="M1263.59 569.443C1263.59 571.346 1266.11 572.021 1267.06 570.372C1267.78 569.132 1266.88 567.583 1265.45 567.583C1264.43 567.583 1263.59 568.415 1263.59 569.443Z" fill="#171655"/>
</g>
</g>
<defs>
<clipPath id="clip0_1105_4">
<rect width="1264" height="577" fill="white"/>
</clipPath>
</defs>
</svg>
